<svg xmlns="http://www.w3.org/2000/svg" version="1.1" xmlns:xlink="http://www.w3.org/1999/xlink" xmlns:svgjs="http://svgjs.dev/svgjs" width="864" height="864"><svg id="SvgjsSvg1006" data-name="Layer 1" xmlns="http://www.w3.org/2000/svg" viewBox="0 0 864 864">
  <defs>
    <style>
      .cls-1 {
        fill: #464c44;
      }

      .cls-2 {
        fill: #c1ccc4;
      }

      .cls-3 {
        fill: #f0e7da;
      }

      .cls-4 {
        fill: #c4864b;
      }

      .cls-5 {
        fill: #c3b37d;
      }
    </style>
  </defs>
  <path class="cls-1" d="M825.97,46.12H38.03c-7.23,0-13.08,5.84-13.08,13.06,0,102.2-.07,469.18,0,470.94,2.16,50.62,20.01,97.3,53.54,140.06,35.84,45.7,84.88,81.74,147.16,108.12,61.54,26.08,129.29,39.24,203.21,39.54v.03c.1,0,.19-.02.29-.03.77,0,1.53.03,2.3.03,1.1,0,2.18-.03,3.27-.04.14.01.27.03.41.04v-.04c73.51-.43,141.07-13.58,202.67-39.53,62.62-26.38,111.86-62.43,147.7-108.12,33.53-42.76,51.39-89.45,53.54-140.06.08-1.76.02-368.74,0-470.94,0-7.23-5.86-13.06-13.08-13.06Z"></path>
  <path class="cls-5" d="M120.3,637.17c31.6,40.29,74.84,72.08,129.76,95.34,54.9,23.27,115.39,34.89,181.46,34.89s126.73-11.63,181.95-34.89c55.21-23.26,98.63-55.04,130.23-95.34,29.57-37.7,45.31-78.87,47.21-123.5.22-5.05-5.15-9.25-11.87-9.25H84.96c-6.72,0-12.09,4.2-11.87,9.25,1.9,44.63,17.64,85.8,47.21,123.5Z"></path>
  <path class="cls-2" d="M411.06,312.35c-5.57-9.45-13.22-16.9-22.95-22.36-9.71-5.44-20.37-8.17-31.98-8.18h0s-6.64,0-6.64,0v-62.32c0-12.96-10.47-23.46-23.39-23.46H96.29c-12.92,0-23.39,10.51-23.39,23.46v111.95c0,24.82,2.27,47.61,6.8,68.35,4.53,20.75,10.73,37.11,18.61,49.09,7.87,11.98,16.55,17.97,26.02,17.97h173.66c9.45-.03,18.12-6.02,26.03-17.97,7.22-10.92,13.01-25.52,17.41-43.71h14.7c11.61-.02,22.27-2.74,31.98-8.18,9.73-5.46,17.38-12.91,22.95-22.36,5.57-9.45,8.35-19.83,8.35-31.14s-2.78-21.68-8.35-31.14ZM390.77,362.66c-3.45,5.85-8.09,10.36-14.18,13.78-6.19,3.47-12.9,5.17-20.46,5.18h-10.15c2.33-15.69,3.51-32.4,3.51-50.18v-26.08h6.61c7.59.01,14.3,1.7,20.49,5.17,6.1,3.42,10.73,7.93,14.18,13.78,3.43,5.82,5.09,12.09,5.09,19.18s-1.67,13.36-5.09,19.18Z"></path>
  <path class="cls-4" d="M96.69,127.9c15.8,9.45,37.42,16.91,64.88,22.36,27.45,5.46,57.7,8.18,90.73,8.18s63.36-2.73,90.98-8.18c27.61-5.46,49.31-12.91,65.11-22.36,14.78-8.84,22.65-18.5,23.6-28.97.11-1.18-2.58-2.17-5.94-2.17H79.02c-3.36,0-6.04.99-5.94,2.17.95,10.47,8.82,20.12,23.6,28.97Z"></path>
  <path class="cls-3" d="M755.84,337.92c1.76-.79,3.49-1.66,5.19-2.62,9.68-5.46,17.3-12.91,22.87-22.36,5.57-9.45,8.35-19.83,8.35-31.14s-2.79-21.68-8.35-31.14c-5.57-9.45-13.19-16.9-22.87-22.36-1.7-.96-3.43-1.83-5.19-2.62-4.81-2.16-4.81-8.97,0-11.12,1.76-.79,3.49-1.66,5.19-2.62,9.68-5.46,17.3-12.91,22.87-22.36,5.57-9.45,8.35-19.83,8.35-31.14s-2.79-21.68-8.35-31.14c-5.57-9.45-13.19-16.9-22.87-22.36-9.67-5.46-20.33-8.18-31.98-8.18h-213.47c-11.64,0-22.3,2.73-31.98,8.18-9.68,5.46-17.3,12.91-22.87,22.36-5.57,9.45-8.35,19.83-8.35,31.14s2.79,21.69,8.35,31.14c5.57,9.45,13.19,16.91,22.87,22.36,1.7.96,3.43,1.83,5.19,2.62,4.81,2.16,4.81,8.97,0,11.12-1.76.79-3.49,1.66-5.19,2.62-9.68,5.46-17.3,12.91-22.87,22.36-5.57,9.45-8.35,19.83-8.35,31.14s2.79,21.68,8.35,31.14c5.57,9.45,13.19,16.91,22.87,22.36,1.7.96,3.43,1.83,5.19,2.62,4.81,2.16,4.81,8.97,0,11.12-1.76.79-3.49,1.66-5.19,2.62-9.68,5.46-17.3,12.91-22.87,22.36-5.57,9.45-8.35,19.83-8.35,31.14s2.79,21.68,8.35,31.14c5.57,9.45,13.19,16.91,22.87,22.36,9.67,5.46,20.33,8.18,31.98,8.18h213.47c11.64,0,22.3-2.73,31.98-8.18,9.68-5.46,17.3-12.91,22.87-22.36,5.57-9.45,8.35-19.83,8.35-31.14s-2.79-21.68-8.35-31.14c-5.57-9.45-13.19-16.9-22.87-22.36-1.7-.96-3.43-1.83-5.19-2.62-4.81-2.16-4.81-8.97,0-11.12Z"></path>
</svg><style>@media (prefers-color-scheme: light) { :root { filter: none; } }
@media (prefers-color-scheme: dark) { :root { filter: none; } }
</style></svg>