<?xml version="1.0" encoding="UTF-8" standalone="no"?>
<!-- Created with Inkscape (http://www.inkscape.org/) -->

<svg
   width="137.23056mm"
   height="40.216667mm"
   viewBox="0 0 137.23056 40.216667"
   version="1.1"
   id="svg5"
   xml:space="preserve"
   xmlns="http://www.w3.org/2000/svg"
   xmlns:svg="http://www.w3.org/2000/svg"><defs
     id="defs2" /><g
     id="g701"
     transform="matrix(0.03527778,0,0,-0.03527778,-5.0620426e-6,40.216668)"><path
       d="m 1409.36,852.848 c 50.73,0 88.35,-1.801 139.65,-5.403 -2.85,9.602 -2.85,15.602 -2.85,19.801 0,7.199 1.14,14.399 2.85,22.797 -31.35,-1.195 -71.25,-3.598 -107.73,-3.598 -27.92,0 -87.77,2.403 -107.72,3.598 2.85,-57.598 5.7,-122.992 5.7,-199.191 0,-95.395 -0.57,-111.594 -5.13,-212.391 10.83,2.402 21.09,3.602 37.05,3.602 15.96,0 27.93,-0.602 41.03,-3.602 -1.71,12.598 -1.71,17.398 -2.28,31.199 -0.57,18.602 -0.57,27 -0.57,88.195 v 80.399 c 60.99,0 67.83,0 99.18,-1.199 l 31.35,-1.203 c -1.71,7.8 -2.85,13.8 -2.85,20.402 0,7.199 1.14,13.797 2.85,19.797 -23.37,-1.199 -48.45,-3 -91.2,-3 h -39.33 v 139.797"
       style="fill:var(--afa-text);fill-opacity:1;fill-rule:nonzero;stroke:none"
       id="path703" /><path
       d="m 1549.15,603.961 c 0,-83.016 53.56,-133.359 134.43,-133.359 82.48,0 134.43,50.343 134.43,133.359 0,87.301 -51.95,133.894 -134.43,133.894 -80.87,0 -134.43,-51.414 -134.43,-133.894 z m 66.95,0.535 c 0,44.453 9.1,111.938 67.48,111.938 58.38,0 67.49,-66.414 67.49,-111.938 0,-45.523 -9.11,-112.473 -67.49,-112.473 -58.38,0 -67.48,66.95 -67.48,112.473"
       style="fill:var(--afa-text);fill-opacity:1;fill-rule:evenodd;stroke:none"
       id="path705" /><path
       d="m 1868.79,564.863 c 0,-6.425 0.53,-32.672 10.71,-51.418 15,-27.847 43.92,-42.308 74.98,-42.308 48.21,0 72.31,29.992 86.77,49.273 0,-23.031 0,-23.566 -2.14,-43.383 11.78,1.606 20.35,3.211 30.52,3.211 9.64,0 18.75,-2.14 33.75,-3.211 -2.68,29.457 -4.29,46.059 -4.29,113.543 0,48.203 2.14,95.871 5.36,143.535 -18.21,-2.675 -27.85,-3.21 -36.42,-3.21 -10.18,0 -21.42,1.605 -31.07,3.21 3.75,-32.667 3.75,-89.976 3.75,-126.933 0,-20.352 -2.14,-51.949 -9.1,-65.875 -3.75,-7.496 -17.14,-30.527 -50.35,-30.527 -21.42,0 -41.24,12.855 -47.13,34.812 -3.21,12.32 -3.75,56.773 -3.75,71.77 0,24.097 1.61,92.121 6.43,116.753 -11.78,-2.14 -23.03,-3.21 -34.81,-3.21 -11.25,0 -21.96,1.07 -34.28,3.21 2.67,-23.562 3.21,-33.738 3.21,-56.234 0,-37.488 -2.14,-75.516 -2.14,-113.008"
       style="fill:var(--afa-text);fill-opacity:1;fill-rule:nonzero;stroke:none"
       id="path707" /><path
       d="m 2398.45,646.273 c 0,57.305 -31.07,90.512 -89.45,90.512 -41.23,0 -61.05,-17.676 -83.01,-47.133 0,26.782 0,28.922 2.68,44.453 -8.57,-1.605 -15,-3.21 -29.46,-3.21 -19.28,0 -29.99,2.14 -35.35,3.21 3.75,-39.628 4.28,-46.058 4.28,-114.078 0,-63.734 -0.53,-71.765 -5.35,-143 11.25,1.606 23.03,3.211 33.74,3.211 4.82,0 28.39,-2.675 33.74,-3.211 -2.67,36.418 -3.75,72.305 -3.75,121.043 0,18.207 1.61,55.164 9.11,70.7 8.57,17.671 27.32,31.058 47.67,31.058 23.03,0 43.38,-10.176 49.81,-35.348 3.75,-14.46 3.75,-58.378 3.75,-86.226 0,-25.172 -2.15,-75.52 -6.43,-101.227 10.18,1.071 23.03,3.211 34.81,3.211 11.78,0 23.03,-2.14 34.81,-3.211 -2.14,12.321 -3.75,39.098 -3.75,65.875 0,26.246 2.15,88.371 2.15,103.371"
       style="fill:var(--afa-text);fill-opacity:1;fill-rule:nonzero;stroke:none"
       id="path709" /><path
       d="m 2646.39,477.027 c 8.57,1.071 17.67,3.211 31.06,3.211 13.39,0 25.17,-2.14 30.53,-3.211 -4.82,32.137 -5.89,196.559 -5.89,205.129 0,63.735 2.14,128.004 5.89,191.739 -9.11,-2.141 -19.28,-3.211 -30.53,-3.211 -15.53,0 -26.24,1.07 -38.02,3.211 5.35,-44.454 6.42,-103.368 6.42,-172.457 -18.21,18.21 -36.96,35.347 -76.59,35.347 -65.87,0 -119.97,-47.133 -119.97,-136.574 0,-72.301 47.13,-130.68 117.3,-130.68 41.77,0 68.55,25.707 81.4,44.453 z m -66.95,24.637 c -55.17,0 -63.2,68.02 -63.2,109.258 0,40.703 12.32,97.476 65.34,97.476 51.42,0 64.27,-51.414 64.27,-102.296 0,-70.696 -26.78,-104.438 -66.41,-104.438"
       style="fill:var(--afa-text);fill-opacity:1;fill-rule:evenodd;stroke:none"
       id="path711" /><path
       d="m 2842.84,618.422 c -49.81,-13.391 -86.23,-23.031 -86.23,-82.481 0,-20.886 11.78,-65.339 73.91,-65.339 27.85,0 55.17,14.461 71.77,36.418 6.42,-17.137 12.85,-32.672 44.45,-32.672 15,0 31.6,6.429 45.53,11.785 -1.07,3.215 -2.15,6.426 -2.15,9.64 0,3.215 1.08,6.426 2.15,9.641 -4.82,-2.144 -9.64,-4.285 -15,-4.285 -18.21,0 -18.75,12.855 -18.75,65.34 0,17.676 1.61,71.769 1.61,91.586 0,54.093 -39.63,80.336 -97.47,80.336 -27.86,0 -44.46,-5.352 -85.16,-29.993 0.53,-4.82 0.53,-9.64 0.53,-14.46 0,-9.102 -1.07,-16.067 -2.67,-26.243 2.67,0.535 5.89,1.075 8.57,1.075 2.67,0 5.35,-0.54 8.03,-1.075 3.21,12.852 17.14,38.028 57.84,38.028 28.92,0 51.95,-16.071 51.95,-56.774 0,-3.75 -0.54,-7.5 -2.14,-10.711 -2.68,-4.82 -6.96,-6.429 -38.56,-14.996 z m 57.31,-64.27 c 0,-27.851 -18.75,-50.882 -47.67,-50.882 -21.43,0 -35.35,17.675 -35.35,46.062 0,38.563 21.96,44.453 83.02,60.52 v -55.7"
       style="fill:var(--afa-text);fill-opacity:1;fill-rule:evenodd;stroke:none"
       id="path713" /><path
       d="m 3104.76,828.371 c -9.64,-8.57 -30.53,-23.566 -61.06,-37.492 1.07,-24.637 1.07,-46.063 1.07,-61.055 h -23.56 c -6.97,0 -14.46,1.606 -18.21,2.141 1.07,-6.426 1.6,-11.246 1.6,-17.137 0,-5.355 -1.06,-9.105 -1.6,-11.785 6.43,0.535 14.99,1.609 25.17,1.609 h 16.07 c 0,-42.847 -3.22,-136.574 -3.22,-160.14 0,-21.426 4.29,-46.063 22.5,-60.524 12.32,-9.64 33.2,-13.925 48.2,-13.925 17.67,0 44.99,7.5 60.52,15.535 -1.07,3.75 -2.14,6.961 -2.14,12.316 0,4.285 1.6,10.176 2.14,12.856 -10.71,-7.5 -20.35,-11.247 -32.13,-11.247 -35.89,0 -38.57,23.028 -38.57,102.297 0,22.493 1.61,79.801 1.61,102.832 29.46,0 35.35,0 58.38,-2.144 -1.07,5.355 -1.61,10.176 -1.61,16.066 0,5.356 0.54,8.571 1.61,13.391 l -19.82,-1.606 c -9.64,-0.535 -12.85,-0.535 -36.95,-0.535 1.61,80.336 1.61,89.442 3.75,96.938 l -3.75,1.609"
       style="fill:var(--afa-text);fill-opacity:1;fill-rule:nonzero;stroke:none"
       id="path715" /><path
       d="m 3207.96,477.027 c 12.33,1.606 24.11,3.211 36.43,3.211 11.78,0 20.88,-1.605 31.06,-3.211 0,6.43 -2.15,36.957 -2.15,43.918 -0.53,18.746 -1.6,73.91 -1.6,97.477 0,19.281 2.14,69.09 3.21,91.582 l 1.07,24.101 c -8.57,-1.605 -17.13,-3.21 -33.2,-3.21 -15.53,0 -25.17,1.605 -35.89,3.21 3.75,-37.488 5.36,-94.796 5.36,-132.824 0,-19.816 -0.54,-39.093 -1.61,-66.41 z m 33.21,306.352 c 19.28,0 37.49,16.605 37.49,36.957 0,19.816 -17.67,37.492 -37.49,37.492 -19.81,0 -36.96,-17.676 -36.96,-37.492 0,-20.352 17.68,-36.957 36.96,-36.957"
       style="fill:var(--afa-text);fill-opacity:1;fill-rule:evenodd;stroke:none"
       id="path717" /><path
       d="m 3329.98,603.961 c 0,-83.016 53.56,-133.359 134.43,-133.359 82.48,0 134.43,50.343 134.43,133.359 0,87.301 -51.95,133.894 -134.43,133.894 -80.87,0 -134.43,-51.414 -134.43,-133.894 z m 66.95,0.535 c 0,44.453 9.1,111.938 67.48,111.938 58.38,0 67.48,-66.414 67.48,-111.938 0,-45.523 -9.1,-112.473 -67.48,-112.473 -58.38,0 -67.48,66.95 -67.48,112.473"
       style="fill:var(--afa-text);fill-opacity:1;fill-rule:evenodd;stroke:none"
       id="path719" /><path
       d="m 3882.6,646.273 c 0,57.305 -31.07,90.512 -89.45,90.512 -41.24,0 -61.06,-17.676 -83.01,-47.133 0,26.782 0,28.922 2.68,44.453 -8.58,-1.605 -15,-3.21 -29.46,-3.21 -19.28,0 -30,2.14 -35.35,3.21 3.75,-39.628 4.28,-46.058 4.28,-114.078 0,-63.734 -0.53,-71.765 -5.35,-143 11.24,1.606 23.02,3.211 33.74,3.211 4.82,0 28.39,-2.675 33.74,-3.211 -2.68,36.418 -3.75,72.305 -3.75,121.043 0,18.207 1.61,55.164 9.11,70.7 8.57,17.671 27.31,31.058 47.67,31.058 23.02,0 43.37,-10.176 49.8,-35.348 3.75,-14.46 3.75,-58.378 3.75,-86.226 0,-25.172 -2.14,-75.52 -6.43,-101.227 10.18,1.071 23.04,3.211 34.82,3.211 11.78,0 23.03,-2.14 34.81,-3.211 -2.14,12.321 -3.75,39.098 -3.75,65.875 0,26.246 2.15,88.371 2.15,103.371"
       style="fill:var(--afa-text);fill-opacity:1;fill-rule:nonzero;stroke:none"
       id="path721" /><path
       d="m 1723.44,383.605 c -0.29,4.348 -0.29,10.145 -0.29,15.364 0,4.351 0.87,10.437 2.32,14.496 -6.38,1.16 -7.25,1.16 -8.7,1.16 -28.99,0 -42.91,-25.512 -46.38,-31.598 -9.57,-16.816 -10.44,-27.547 -12.76,-48.129 -18.27,0.29 -8.12,0 -22.04,1.161 0.3,-3.188 0.87,-5.801 0.87,-7.829 0,-2.609 -0.28,-5.218 -0.87,-7.828 3.48,0.289 6.68,0.871 12.47,0.871 h 9.28 c 0.29,-5.8 0.58,-29.281 0.58,-42.91 0,-13.918 -0.58,-28.41 -0.87,-51.023 -0.29,-17.106 -0.58,-20.297 -2.03,-29.285 4.93,0.582 12.47,1.742 18.84,1.742 5.52,0 12.76,-1.16 18.27,-1.742 -2.32,24.937 -2.9,100.316 -2.9,107.273 v 15.945 c 21.75,0 25.22,0 30.15,-0.871 -0.58,2.032 -1.16,4.348 -1.16,7.828 0,3.188 0.58,5.508 1.16,7.829 l -10.72,-0.871 c -5.22,-0.29 -6.96,-0.29 -20.01,-0.29 -2.61,8.407 -8.12,26.383 -8.12,34.211 0,17.973 13.92,18.551 19.43,18.551 3.48,0 13.62,-0.578 21.45,-5.797 l 2.03,1.742"
       style="fill:var(--afa-text);fill-opacity:1;fill-rule:nonzero;stroke:none"
       id="path723" /><path
       d="m 1726.65,266.77 c 0,-44.938 28.99,-72.192 72.77,-72.192 44.64,0 72.77,27.254 72.77,72.192 0,47.253 -28.13,72.476 -72.77,72.476 -43.78,0 -72.77,-27.832 -72.77,-72.476 z m 36.24,0.289 c 0,24.062 4.93,60.589 36.53,60.589 31.6,0 36.53,-35.949 36.53,-60.589 0,-24.645 -4.93,-60.883 -36.53,-60.883 -31.6,0 -36.53,36.238 -36.53,60.883"
       style="fill:var(--afa-text);fill-opacity:1;fill-rule:evenodd;stroke:none"
       id="path725" /><path
       d="m 1899.73,198.055 c 8.7,0.871 15.08,1.742 20,1.742 6.09,0 13.34,-1.449 16.82,-1.742 -1.74,17.976 -2.61,46.097 -2.61,64.652 0,20.008 1.45,24.356 3.48,28.703 3.48,7.539 12.76,15.656 25.8,15.656 1.45,0 12.18,0 17.11,-4.058 l 2.03,1.449 c -0.87,3.477 -1.45,7.828 -1.45,12.465 0,4.058 0.29,16.527 2.61,20.875 -2.32,0.582 -4.64,0.871 -7.54,0.871 -23.19,0 -34.79,-19.426 -42.62,-31.891 0,14.203 0,15.657 1.74,30.442 -4.64,-1.16 -9.56,-1.742 -16.52,-1.742 -7.54,0 -12.47,0.582 -19.14,1.742 1.45,-25.516 2.03,-32.762 2.03,-64.364 0,-11.308 0,-33.628 -0.58,-46.386 l -1.16,-28.414"
       style="fill:var(--afa-text);fill-opacity:1;fill-rule:nonzero;stroke:none"
       id="path727" /><path
       d="m 2117.69,388.242 c -5.21,-4.637 -16.52,-12.754 -33.05,-20.293 0.58,-13.336 0.58,-24.933 0.58,-33.051 h -12.76 c -3.76,0 -7.82,0.868 -9.85,1.161 0.58,-3.481 0.87,-6.09 0.87,-9.278 0,-2.902 -0.58,-4.929 -0.87,-6.379 3.48,0.289 8.12,0.871 13.62,0.871 h 8.7 c 0,-23.195 -1.74,-73.929 -1.74,-86.687 0,-11.594 2.32,-24.934 12.18,-32.762 6.67,-5.219 17.97,-7.535 26.09,-7.535 9.57,0 24.36,4.059 32.76,8.406 -0.58,2.032 -1.16,3.77 -1.16,6.668 0,2.321 0.87,5.508 1.16,6.957 -5.8,-4.058 -11.01,-6.086 -17.39,-6.086 -19.43,0 -20.88,12.465 -20.88,55.375 0,12.176 0.87,43.2 0.87,55.664 15.95,0 19.14,0 31.6,-1.16 -0.58,2.899 -0.87,5.508 -0.87,8.696 0,2.902 0.29,4.64 0.87,7.25 l -10.72,-0.871 c -5.22,-0.29 -6.96,-0.29 -20.01,-0.29 0.87,43.485 0.87,48.415 2.03,52.477 l -2.03,0.867"
       style="fill:var(--afa-text);fill-opacity:1;fill-rule:nonzero;stroke:none"
       id="path729" /><path
       d="m 2209.25,412.887 c -5.51,-1.16 -10.14,-1.742 -17.39,-1.742 -7.54,0 -13.92,0.582 -19.72,1.742 0.87,-15.367 2.03,-33.051 2.03,-44.649 l 0.29,-56.535 c 0,-61.461 0,-74.508 -2.32,-113.648 2.9,0.293 11.6,1.742 17.69,1.742 6.09,0 12.46,-0.871 18.26,-1.742 -1.45,26.093 -1.45,28.996 -1.45,66.972 0,20.004 1.16,26.672 3.48,33.922 4.64,14.492 17.98,18.844 28.7,18.844 11.89,0 21.75,-6.09 24.94,-17.977 1.74,-6.668 2.03,-14.207 2.03,-41.168 0,-20.003 -1.45,-44.355 -3.19,-60.593 4.06,0.293 13.04,1.742 19.42,1.742 6.38,0 12.18,-0.578 17.98,-1.742 -0.87,11.597 -1.74,38.562 -1.74,54.508 0,8.984 0.58,24.644 0.58,31.308 0,13.047 0,24.938 -6.67,35.371 -9.28,14.496 -25.22,19.426 -40.3,19.426 -16.53,0 -32.76,-6.09 -45.23,-23.773 0,35.66 0,56.242 2.03,88.714 l 0.58,9.278"
       style="fill:var(--afa-text);fill-opacity:1;fill-rule:nonzero;stroke:none"
       id="path731" /><path
       d="m 2453.69,266.477 c 0.87,22.035 -3.48,37.109 -8.41,46.386 -14.49,26.383 -43.77,26.383 -54.5,26.383 -34.21,0 -67.26,-22.035 -67.26,-70.16 0,-10.145 0.29,-35.949 19.42,-55.371 15.95,-16.238 41.75,-19.137 52.48,-19.137 27.83,0 46.67,12.465 48.71,14.785 l 2.6,12.469 c 0.58,2.027 1.45,4.059 2.32,6.086 l -3.19,2.031 c -9.56,-11.019 -28.12,-18.265 -41.16,-18.265 -46.1,0 -46.1,44.066 -46.1,54.793 z m -94.51,14.207 c 0.58,11.015 2.32,46.964 32.18,46.964 28.99,0 28.99,-32.757 28.99,-46.964 h -61.17"
       style="fill:var(--afa-text);fill-opacity:1;fill-rule:evenodd;stroke:none"
       id="path733" /><path
       d="m 1781.45,823.527 c 5.22,0.289 13.34,1.739 21.46,1.739 8.11,0 18.26,-1.45 22.61,-1.739 -13.04,28.121 -32.18,71.899 -43.2,97.121 -10.43,24.356 -27.83,64.942 -41.75,104.662 -3.18,-0.87 -6.08,-1.45 -9.27,-1.45 -3.48,0 -6.38,0.58 -9.57,1.45 -6.96,-23.77 -23.77,-61.462 -53.05,-126.986 l -33.63,-74.797 c 4.06,0.578 8.11,1.739 13.04,1.739 4.64,0 10.15,-1.161 13.92,-1.739 4.63,16.524 13.91,40.59 23.19,62.911 11.6,0.582 23.19,1.16 34.79,1.16 12.47,0 24.64,-0.578 37.11,-1.16 l 12.18,-30.731 z m -32.76,80.887 c -8.98,-0.582 -17.68,-1.16 -26.67,-1.16 -10.14,0 -20,0.871 -30.15,1.16 l 29.57,71.32 27.25,-71.32"
       style="fill:var(--afa-text);fill-opacity:1;fill-rule:evenodd;stroke:none"
       id="path735" /><path
       d="m 1839.79,1038.36 c 2.03,-22.62 3.48,-45.524 3.48,-99.446 0,-6.957 0.29,-93.062 -2.9,-115.387 10.15,1.161 15.08,1.739 20.01,1.739 6.08,0 11.88,-1.161 17.68,-1.739 -3.48,32.762 -2.61,102.34 -2.61,108.137 0,29.863 0,75.376 2.9,106.696 -5.8,-0.88 -8.99,-1.74 -18.56,-1.74 -9.27,0 -12.75,0.58 -20,1.74"
       style="fill:var(--afa-text);fill-opacity:1;fill-rule:nonzero;stroke:none"
       id="path737" /><path
       d="m 2048.79,896.297 c 0,48.414 -32.18,68.707 -60.88,68.707 -19.43,0 -33.34,-9.563 -44.36,-24.641 0.58,59.434 0.58,65.817 2.32,97.997 -4.93,-0.88 -9.57,-1.74 -17.69,-1.74 -8.11,0 -13.62,0.58 -19.42,1.74 3.19,-53.641 3.48,-72.192 3.48,-110.172 0,-58.274 -1.16,-75.379 -2.9,-104.661 h 9.86 c 8.41,9.856 9.57,11.016 18.26,16.817 12.47,-16.817 27.83,-20.297 45.23,-20.297 42.33,0 66.1,37.113 66.1,76.25 z m -71.32,-62.914 c -32.76,0 -34.5,39.14 -34.5,57.117 0,23.484 4.93,56.824 35.08,56.824 32.18,0 34.79,-34.793 34.79,-53.926 0,-24.355 -5.51,-60.015 -35.37,-60.015"
       style="fill:var(--afa-text);fill-opacity:1;fill-rule:evenodd;stroke:none"
       id="path739" /><path
       d="m 2202.74,891.945 c 0.87,22.039 -3.48,37.11 -8.41,46.391 -14.5,26.383 -43.78,26.383 -54.5,26.383 -34.21,0 -67.27,-22.035 -67.27,-70.164 0,-10.145 0.3,-35.95 19.43,-55.371 15.94,-16.235 41.75,-19.137 52.47,-19.137 27.84,0 46.68,12.469 48.71,14.789 l 2.61,12.465 c 0.58,2.027 1.45,4.058 2.32,6.09 l -3.19,2.027 c -9.57,-11.02 -28.12,-18.266 -41.17,-18.266 -46.1,0 -46.1,44.071 -46.1,54.793 z m -94.51,14.207 c 0.57,11.02 2.31,46.969 32.18,46.969 28.99,0 28.99,-32.762 28.99,-46.969 h -61.17"
       style="fill:var(--afa-text);fill-opacity:1;fill-rule:evenodd;stroke:none"
       id="path741" /><path
       d="m 2232.6,823.527 c 8.69,0.871 15.07,1.739 20,1.739 6.09,0 13.34,-1.45 16.82,-1.739 -1.74,17.977 -2.62,46.098 -2.62,64.653 0,20.004 1.45,24.351 3.49,28.699 3.48,7.539 12.75,15.656 25.8,15.656 1.45,0 12.18,0 17.11,-4.058 l 2.02,1.449 c -0.87,3.48 -1.45,7.828 -1.45,12.469 0,4.054 0.29,16.523 2.61,20.871 -2.32,0.582 -4.64,0.871 -7.54,0.871 -23.19,0 -34.79,-19.426 -42.61,-31.891 0,14.203 0,15.656 1.74,30.442 -4.64,-1.161 -9.57,-1.739 -16.53,-1.739 -7.54,0 -12.46,0.578 -19.13,1.739 1.44,-25.516 2.03,-32.762 2.03,-64.364 0,-11.304 0,-33.629 -0.59,-46.386 l -1.15,-28.411"
       style="fill:var(--afa-text);fill-opacity:1;fill-rule:nonzero;stroke:none"
       id="path743" /><path
       d="m 2382.46,1013.71 c -5.21,-4.64 -16.52,-12.75 -33.04,-20.292 0.58,-13.336 0.58,-24.934 0.58,-33.051 h -12.76 c -3.77,0 -7.83,0.871 -9.86,1.16 0.58,-3.48 0.87,-6.086 0.87,-9.277 0,-2.898 -0.58,-4.926 -0.87,-6.379 3.48,0.293 8.12,0.871 13.63,0.871 h 8.7 c 0,-23.195 -1.75,-73.929 -1.75,-86.683 0,-11.598 2.33,-24.938 12.18,-32.762 6.67,-5.219 17.98,-7.539 26.09,-7.539 9.57,0 24.36,4.058 32.77,8.406 -0.58,2.031 -1.16,3.77 -1.16,6.672 0,2.316 0.87,5.508 1.16,6.957 -5.8,-4.059 -11.02,-6.09 -17.4,-6.09 -19.42,0 -20.87,12.465 -20.87,55.375 0,12.176 0.87,43.199 0.87,55.664 15.94,0 19.13,0 31.6,-1.16 -0.58,2.898 -0.87,5.508 -0.87,8.699 0,2.899 0.29,4.637 0.87,7.246 l -10.73,-0.871 c -5.22,-0.289 -6.96,-0.289 -20.01,-0.289 0.88,43.493 0.88,48.423 2.04,52.473 l -2.04,0.87"
       style="fill:var(--afa-text);fill-opacity:1;fill-rule:nonzero;stroke:none"
       id="path745" /><path
       d="m 2476.35,900.066 c -26.97,-7.25 -46.68,-12.468 -46.68,-44.648 0,-11.305 6.38,-35.371 40.01,-35.371 15.07,0 29.86,7.828 38.85,19.719 3.48,-9.282 6.95,-17.688 24.06,-17.688 8.12,0 17.11,3.481 24.64,6.379 -0.58,1.738 -1.16,3.477 -1.16,5.219 0,1.738 0.58,3.476 1.16,5.215 -2.6,-1.157 -5.21,-2.317 -8.11,-2.317 -9.86,0 -10.15,6.957 -10.15,35.371 0,9.563 0.87,38.848 0.87,49.575 0,29.281 -21.46,43.484 -52.77,43.484 -15.07,0 -24.06,-2.895 -46.09,-16.231 0.29,-2.609 0.29,-5.218 0.29,-7.832 0,-4.925 -0.58,-8.695 -1.45,-14.203 1.45,0.289 3.19,0.578 4.64,0.578 1.45,0 2.9,-0.289 4.34,-0.578 1.74,6.957 9.28,20.586 31.32,20.586 15.65,0 28.12,-8.699 28.12,-30.734 0,-2.027 -0.29,-4.059 -1.16,-5.797 -1.45,-2.609 -3.77,-3.48 -20.88,-8.117 z m 31.02,-34.789 c 0,-15.078 -10.15,-27.543 -25.8,-27.543 -11.6,0 -19.14,9.567 -19.14,24.934 0,20.871 11.89,24.062 44.94,32.758 v -30.149"
       style="fill:var(--afa-text);fill-opacity:1;fill-rule:evenodd;stroke:none"
       id="path747" /><path
       d="m 2739.67,51.0742 c 9.64,0.5352 24.63,3.211 39.63,3.211 15,0 33.74,-2.6758 41.78,-3.211 -24.1,51.9488 -59.45,132.8238 -79.81,179.4178 -19.28,44.988 -51.41,119.973 -77.12,193.348 -5.89,-1.61 -11.25,-2.68 -17.14,-2.68 -6.42,0 -11.78,1.07 -17.67,2.68 -12.86,-43.918 -43.92,-113.547 -98.01,-234.586 L 2469.2,51.0742 c 7.5,1.0703 15,3.211 24.1,3.211 8.57,0 18.75,-2.1407 25.71,-3.211 8.57,30.5274 25.7,74.9808 42.85,116.2188 21.42,1.074 42.84,2.145 64.27,2.145 23.02,0 45.52,-1.071 68.55,-2.145 l 22.49,-56.77 z M 2679.15,200.5 c -16.61,-1.07 -32.67,-2.141 -49.27,-2.141 -18.75,0 -36.96,1.606 -55.71,2.141 l 54.63,131.754 50.35,-131.754"
       style="fill:var(--afa-text);fill-opacity:1;fill-rule:evenodd;stroke:none"
       id="path749" /><path
       d="m 2839.82,51.0742 c 16.07,1.6055 27.85,3.211 36.96,3.211 11.25,0 24.63,-2.6758 31.06,-3.211 -3.21,33.2071 -4.82,85.1558 -4.82,119.4338 0,36.957 2.68,44.988 6.43,53.023 6.43,13.926 23.57,28.922 47.66,28.922 2.68,0 22.5,0 31.6,-7.5 l 3.75,2.68 c -1.6,6.426 -2.67,14.461 -2.67,23.031 0,7.496 0.53,30.527 4.82,38.559 -4.29,1.07 -8.57,1.609 -13.93,1.609 -42.84,0 -64.27,-35.887 -78.73,-58.914 0,26.242 0,28.922 3.21,56.234 -8.57,-2.14 -17.67,-3.211 -30.53,-3.211 -13.92,0 -23.02,1.071 -35.34,3.211 2.67,-47.132 3.75,-60.519 3.75,-118.898 0,-20.887 0,-62.129 -1.08,-85.695 l -2.14,-52.4848"
       style="fill:var(--afa-text);fill-opacity:1;fill-rule:nonzero;stroke:none"
       id="path751" /><path
       d="m 3108.59,402.414 c -9.64,-8.566 -30.54,-23.562 -61.06,-37.488 1.07,-24.637 1.07,-46.059 1.07,-61.059 h -23.57 c -6.96,0 -14.46,1.606 -18.21,2.145 1.07,-6.43 1.61,-11.246 1.61,-17.141 0,-5.355 -1.07,-9.105 -1.61,-11.781 6.43,0.535 15,1.605 25.18,1.605 h 16.06 c 0,-42.847 -3.21,-136.574 -3.21,-160.136 0,-21.4262 4.28,-46.0629 22.49,-60.5238 12.32,-9.6407 33.21,-13.9258 48.21,-13.9258 17.67,0 44.99,7.5 60.52,15.5312 -1.07,3.75 -2.14,6.9649 -2.14,12.3203 0,4.2852 1.6,10.1758 2.14,12.8555 -10.71,-7.5 -20.36,-11.25 -32.14,-11.25 -35.88,0 -38.56,23.0313 -38.56,102.2966 0,22.496 1.61,79.805 1.61,102.832 29.45,0 35.34,0 58.38,-2.14 -1.08,5.355 -1.61,10.175 -1.61,16.066 0,5.356 0.53,8.57 1.61,13.391 l -19.82,-1.61 c -9.64,-0.535 -12.86,-0.535 -36.95,-0.535 1.6,80.336 1.6,89.446 3.74,96.942 l -3.74,1.605"
       style="fill:var(--afa-text);fill-opacity:1;fill-rule:nonzero;stroke:none"
       id="path753" /><path
       d="m 3198.4,111.594 c -1.07,-5.891 -1.07,-15.5315 -3.75,-24.637 -2.14,-8.0351 -6.42,-18.2109 -8.03,-22.4961 27.31,-11.7812 48.74,-20.8867 79.26,-20.8867 76.06,0 102.3,55.1641 102.3,88.3708 0,51.953 -38.56,64.27 -72.3,75.52 -40.17,13.387 -58.38,19.277 -58.38,42.844 0,21.961 17.68,35.351 43.38,35.351 32.67,0 42.85,-20.355 51.42,-37.492 h 8.57 c 1.07,11.781 2.68,26.777 13.39,47.668 -15.54,6.426 -39.64,16.066 -71.77,16.066 -59.45,0 -93.19,-34.812 -93.19,-82.48 0,-48.738 31.6,-62.664 42.31,-68.02 4.28,-2.14 29.46,-10.711 36.42,-13.39 25.17,-9.641 46.06,-16.602 46.06,-39.098 0,-19.2812 -13.39,-38.0234 -40.17,-38.0234 -49.81,0 -61.06,29.4574 -65.88,40.7034 h -9.64"
       style="fill:var(--afa-text);fill-opacity:1;fill-rule:nonzero;stroke:none"
       id="path755" /><path
       d="m 390.766,853.844 c -32.86,-0.656 -64.563,-24.278 -95.094,-70.86 -30.277,-46.578 -48.082,-99.636 -53.438,-159.148 -2.496,-27.75 -0.101,-47.32 7.215,-58.731 7.328,-11.144 18.801,-16.562 34.43,-16.25 16.422,0.329 34.797,8.891 55.141,25.704 20.347,17.066 39.535,45.136 57.582,84.222 18.058,39.34 29.062,80.957 33.015,124.864 2.348,26.121 -0.043,44.347 -7.176,54.699 -6.847,10.613 -17.41,15.773 -31.675,15.5 z M 182.023,986.918 c 100.868,93.892 236.125,151.322 384.805,151.322 114.836,0 221.672,-34.26 310.832,-93.13 -17.265,2.85 -32.508,4.64 -42.82,4.64 -101.817,0 -180.235,-51.934 -236.731,-147.52 -3.66,-6.195 -7.234,-12.566 -10.714,-19.125 -34.985,-69.89 -95.989,-247.742 -105.102,-271.402 -7.637,-19.824 -10.98,-32.355 -11.461,-37.734 -0.363,-4.039 0.164,-7.129 1.586,-9.242 1.687,-2.122 4.281,-3.141 7.789,-3.071 14.152,0.282 32.719,16.453 55.703,48.512 h 39.336 c -48.84,-72.109 -97.805,-108.641 -146.914,-109.637 -19.125,-0.383 -33.414,5.117 -42.875,16.485 -9.437,11.629 -14.062,29.019 -13.855,52.144 -22.805,-26.265 -44.364,-44.844 -64.704,-55.734 -20.043,-10.61 -40.843,-16.129 -62.382,-16.571 -36.899,-0.738 -66.153,11.844 -87.735,37.766 -21.578,26.18 -30.285,62.301 -26.14,108.356 3.972,44.16 18.41,86.652 43.332,127.492 25.172,40.828 55.605,72.754 91.289,95.785 35.691,23.297 71.187,35.297 106.472,36.004 24.243,0.484 43.25,-4.781 57.051,-15.797 13.793,-11.016 23.215,-28.707 28.293,-53.066 l 27.051,58.609 85.832,7.703 c -54.059,75.641 -142.606,124.943 -242.668,124.943 -52.746,0 -102.289,-13.7 -145.27,-37.732 z M 983.668,192.055 C 880.383,79.1953 731.871,8.42188 566.828,8.42188 466.875,8.42188 372.984,34.3789 291.535,79.9219 393.859,93.6328 454.098,187.258 503.246,321.57 L 617.512,610.168 H 828.984 L 864.93,513.664 H 661.391 C 581.602,330.773 495.922,139.289 495.922,139.289 c 13.058,1.867 36.113,5.598 51.969,5.598 14.922,0 42.64,-3.731 54.765,-5.598 0.711,-0.012 112.5,282.5 112.5,282.5 h 183.836 z m -6.152,769.168 c 95.604,-101.188 154.224,-237.696 154.224,-387.891 0,-88.477 -20.34,-172.199 -56.6,-246.75 -72.33,166.059 -177.808,414.633 -209.999,506.508 -10.258,-2.797 -22.766,-4.664 -33.024,-4.664 -11.191,0 -27.336,1.867 -37.594,4.664 -5.222,-17.848 -24.269,-65.141 -50.402,-127.172 H 655.02 l 21.39,58.078 31.289,84.695 c 33.449,89.75 79.094,159.719 147.68,159.719 69.867,0 89.066,-69.902 88.91,-132.488 z M 1.91797,573.332 c 0,61.746 9.90623,121.18 28.21483,176.797 -0.6055,-7.77 -0.914,-15.625 -0.914,-23.555 0,-164.621 133.4492,-298.074 298.0742,-298.074 32.523,0 63.832,5.211 93.133,14.84 L 374.809,319.125 C 329.801,195.43 293.434,130.957 227.105,121.941 90.3359,225.039 1.91797,388.859 1.91797,573.332"
       style="fill:var(--afa-logo);fill-opacity:1;fill-rule:nonzero;stroke:none"
       id="path757" /></g></svg>
