<?xml version="1.0" encoding="UTF-8" standalone="no"?>
<!-- Created with Inkscape (http://www.inkscape.org/) -->

<svg
   width="130.07121mm"
   height="37.853615mm"
   viewBox="0 0 130.07121 37.853615"
   version="1.1"
   id="svg5"
   xml:space="preserve"
   xmlns:inkscape="http://www.inkscape.org/namespaces/inkscape"
   xmlns:sodipodi="http://sodipodi.sourceforge.net/DTD/sodipodi-0.dtd"
   xmlns="http://www.w3.org/2000/svg"
   xmlns:svg="http://www.w3.org/2000/svg"><sodipodi:namedview
     id="namedview7"
     pagecolor="#ffffff"
     bordercolor="#666666"
     borderopacity="1.0"
     inkscape:showpageshadow="2"
     inkscape:pageopacity="0.0"
     inkscape:pagecheckerboard="0"
     inkscape:deskcolor="#d1d1d1"
     inkscape:document-units="mm"
     showgrid="false" /><defs
     id="defs2" /><g
     id="g142"
     transform="matrix(0.03527778,0,0,-0.03527778,-0.09990436,38.050261)"><path
       d="m 2.83203,542.078 c 0,58.645 9.40627,115.09 26.79687,167.91 -0.5781,-7.379 -0.8711,-14.84 -0.8711,-22.367 0,-156.348 126.7382,-283.09 283.0862,-283.09 30.89,0 60.625,4.946 88.453,14.094 L 356.973,300.656 C 314.223,183.18 279.691,121.949 216.695,113.387 86.8008,211.301 2.83203,366.883 2.83203,542.078 Z M 929.375,910.469 c 90.795,-96.102 146.465,-225.742 146.465,-368.391 0,-84.027 -19.32,-163.539 -53.75,-234.344 -68.692,157.711 -168.867,393.789 -199.438,481.039 -9.742,-2.656 -21.621,-4.425 -31.367,-4.425 -10.625,0 -25.961,1.769 -35.703,4.425 -4.961,-16.945 -23.047,-61.863 -47.867,-120.777 h -84.621 l 20.316,55.16 29.715,80.438 c 31.77,85.238 75.113,151.691 140.254,151.691 66.351,0 84.59,-66.39 84.437,-125.832 z m 5.844,-730.496 C 837.125,72.7891 696.082,5.57422 539.336,5.57422 444.41,5.57422 355.242,30.2266 277.887,73.4766 375.063,86.5039 432.273,175.418 478.953,302.977 l 108.516,274.089 h 200.844 l 34.136,-91.652 H 629.145 C 553.367,311.719 471.996,129.863 471.996,129.863 c 12.399,1.77 34.297,5.313 49.356,5.313 14.171,0 40.496,-3.543 52.011,-5.313 0.676,-0.015 106.844,268.293 106.844,268.293 h 174.594 z m -563.09,628.515 c -31.211,-0.625 -61.316,-23.058 -90.313,-67.297 -28.753,-44.234 -45.668,-94.625 -50.753,-151.148 -2.372,-26.352 -0.094,-44.941 6.851,-55.777 6.961,-10.586 17.856,-15.727 32.699,-15.43 15.598,0.309 33.051,8.437 52.367,24.41 19.329,16.207 37.551,42.867 54.688,79.988 17.152,37.36 27.602,76.887 31.355,118.586 2.231,24.805 -0.039,42.114 -6.812,51.95 -6.504,10.078 -16.535,14.976 -30.082,14.718 z m -198.25,126.383 c 95.797,89.169 224.254,143.719 365.457,143.719 109.062,0 210.527,-32.55 295.207,-88.453 -16.398,2.703 -30.875,4.402 -40.672,4.402 -96.699,0 -171.168,-49.309 -224.824,-140.098 -3.481,-5.882 -6.879,-11.945 -10.184,-18.175 -33.226,-66.387 -91.16,-235.278 -99.812,-257.746 -7.25,-18.825 -10.426,-30.727 -10.883,-35.836 -0.348,-3.836 0.156,-6.77 1.504,-8.778 1.601,-2.015 4.066,-2.984 7.398,-2.914 13.442,0.266 31.075,15.625 52.903,46.074 h 37.355 C 500.945,508.582 454.445,473.883 407.805,472.941 c -18.164,-0.363 -31.735,4.856 -40.719,15.653 -8.965,11.047 -13.356,27.558 -13.16,49.523 -21.66,-24.941 -42.133,-42.586 -61.446,-52.929 -19.039,-10.079 -38.792,-15.317 -59.25,-15.739 -35.046,-0.703 -62.824,11.25 -83.324,35.864 -20.492,24.867 -28.761,59.171 -24.824,102.91 3.773,41.941 17.481,82.297 41.152,121.078 23.907,38.777 52.809,69.097 86.7,90.972 33.898,22.125 67.609,33.524 101.121,34.196 23.019,0.457 41.07,-4.543 54.179,-15.004 13.098,-10.461 22.047,-27.266 26.871,-50.399 l 25.692,55.664 81.516,7.313 c -51.344,71.836 -135.438,118.664 -230.469,118.664 -50.09,0 -97.145,-13.012 -137.965,-35.836"
       style="fill:#ffffff;fill-opacity:1;fill-rule:nonzero;stroke:none"
       id="path144" /><path
       d="m 1339.51,807.539 c 48.18,0 83.9,-1.711 132.62,-5.129 -2.7,9.117 -2.7,14.817 -2.7,18.805 0,6.836 1.08,13.676 2.7,21.652 -29.77,-1.14 -67.66,-3.418 -102.31,-3.418 -26.52,0 -83.36,2.278 -102.3,3.418 2.7,-54.699 5.41,-116.808 5.41,-189.176 0,-90.601 -0.54,-105.984 -4.88,-201.711 10.29,2.278 20.04,3.418 35.19,3.418 15.16,0 26.53,-0.57 38.97,-3.418 -1.62,11.965 -1.62,16.524 -2.16,29.629 -0.54,17.664 -0.54,25.641 -0.54,83.762 v 76.356 c 57.92,0 64.42,0 94.19,-1.141 l 29.77,-1.141 c -1.63,7.41 -2.7,13.106 -2.7,19.375 0,6.836 1.07,13.106 2.7,18.805 -22.2,-1.141 -46.01,-2.852 -86.61,-2.852 h -37.35 v 132.766"
       style="fill:#ffffff;fill-opacity:1;fill-rule:nonzero;stroke:none"
       id="path146" /><path
       d="m 1472.27,571.16 c 0,-78.836 50.86,-126.644 127.66,-126.644 78.32,0 127.66,47.808 127.66,126.644 0,82.906 -49.34,127.156 -127.66,127.156 -76.8,0 -127.66,-48.828 -127.66,-127.156 z m 63.57,0.508 c 0,42.219 8.65,106.305 64.09,106.305 55.44,0 64.09,-63.071 64.09,-106.305 0,-43.23 -8.65,-106.809 -64.09,-106.809 -55.44,0 -64.09,63.579 -64.09,106.809"
       style="fill:#ffffff;fill-opacity:1;fill-rule:evenodd;stroke:none"
       id="path148" /><path
       d="m 1775.83,534.031 c 0,-6.101 0.51,-31.023 10.17,-48.828 14.25,-26.449 41.71,-40.18 71.21,-40.18 45.78,0 68.67,28.481 82.4,46.793 0,-21.871 0,-22.378 -2.04,-41.199 11.2,1.528 19.33,3.055 29,3.055 9.15,0 17.8,-2.035 32.04,-3.055 -2.54,27.977 -4.07,43.742 -4.07,107.828 0,45.778 2.03,91.043 5.09,136.309 -17.3,-2.543 -26.45,-3.051 -34.59,-3.051 -9.66,0 -20.34,1.527 -29.5,3.051 3.56,-31.024 3.56,-85.449 3.56,-120.543 0,-19.324 -2.03,-49.336 -8.65,-62.559 -3.56,-7.121 -16.27,-28.992 -47.81,-28.992 -20.34,0 -39.16,12.207 -44.76,33.063 -3.05,11.695 -3.56,53.91 -3.56,68.152 0,22.887 1.53,87.484 6.11,110.879 -11.19,-2.035 -21.87,-3.051 -33.06,-3.051 -10.69,0 -20.86,1.016 -32.55,3.051 2.54,-22.379 3.05,-32.043 3.05,-53.402 0,-35.606 -2.04,-71.719 -2.04,-107.321"
       style="fill:#ffffff;fill-opacity:1;fill-rule:nonzero;stroke:none"
       id="path150" /><path
       d="m 2278.84,611.344 c 0,54.422 -29.5,85.957 -84.94,85.957 -39.16,0 -57.98,-16.789 -78.83,-44.762 0,25.434 0,27.465 2.54,42.215 -8.14,-1.524 -14.24,-3.051 -27.97,-3.051 -18.32,0 -28.48,2.035 -33.57,3.051 3.56,-37.637 4.07,-43.738 4.07,-108.336 0,-60.523 -0.51,-68.152 -5.09,-135.801 10.68,1.528 21.87,3.055 32.04,3.055 4.58,0 26.96,-2.547 32.05,-3.055 -2.55,34.586 -3.57,68.664 -3.57,114.949 0,17.293 1.53,52.387 8.65,67.137 8.14,16.785 25.94,29.5 45.27,29.5 21.87,0 41.2,-9.664 47.3,-33.566 3.56,-13.735 3.56,-55.442 3.56,-81.891 0,-23.906 -2.03,-71.715 -6.1,-96.129 9.66,1.02 21.87,3.055 33.06,3.055 11.19,0 21.87,-2.035 33.06,-3.055 -2.04,11.699 -3.56,37.129 -3.56,62.563 0,24.922 2.03,83.922 2.03,98.164"
       style="fill:#ffffff;fill-opacity:1;fill-rule:nonzero;stroke:none"
       id="path152" /><path
       d="m 2514.32,450.617 c 8.14,1.02 16.79,3.055 29.5,3.055 12.72,0 23.91,-2.035 28.99,-3.055 -4.58,30.52 -5.6,186.664 -5.6,194.801 0,60.527 2.04,121.562 5.6,182.086 -8.65,-2.031 -18.31,-3.051 -28.99,-3.051 -14.75,0 -24.92,1.02 -36.11,3.051 5.08,-42.215 6.1,-98.164 6.1,-163.774 -17.29,17.293 -35.1,33.571 -72.73,33.571 -62.56,0 -113.93,-44.762 -113.93,-129.699 0,-68.664 44.76,-124.106 111.39,-124.106 39.67,0 65.1,24.414 77.3,42.215 z m -63.58,23.395 c -52.39,0 -60.01,64.597 -60.01,103.761 0,38.657 11.69,92.567 62.05,92.567 48.83,0 61.03,-48.828 61.03,-97.145 0,-67.136 -25.43,-99.183 -63.07,-99.183"
       style="fill:#ffffff;fill-opacity:1;fill-rule:evenodd;stroke:none"
       id="path154" /><path
       d="m 2700.9,584.895 c -47.3,-12.719 -81.88,-21.872 -81.88,-78.329 0,-19.836 11.18,-62.05 70.18,-62.05 26.45,0 52.39,13.73 68.16,34.586 6.1,-16.278 12.2,-31.028 42.21,-31.028 14.24,0 30.01,6.106 43.23,11.188 -1.01,3.054 -2.03,6.105 -2.03,9.156 0,3.051 1.02,6.105 2.03,9.156 -4.57,-2.035 -9.15,-4.07 -14.23,-4.07 -17.3,0 -17.81,12.207 -17.81,62.051 0,16.789 1.53,68.156 1.53,86.976 0,51.371 -37.64,76.293 -92.57,76.293 -26.45,0 -42.22,-5.086 -80.87,-28.484 0.51,-4.574 0.51,-9.152 0.51,-13.731 0,-8.648 -1.02,-15.257 -2.54,-24.921 2.54,0.507 5.59,1.015 8.13,1.015 2.55,0 5.09,-0.508 7.63,-1.015 3.05,12.207 16.28,36.109 54.93,36.109 27.47,0 49.34,-15.258 49.34,-53.91 0,-3.563 -0.51,-7.125 -2.03,-10.176 -2.55,-4.574 -6.62,-6.102 -36.62,-14.238 z m 54.42,-61.036 c 0,-26.449 -17.8,-48.32 -45.26,-48.32 -20.35,0 -33.57,16.785 -33.57,43.742 0,36.621 20.85,42.215 78.83,57.477 v -52.899"
       style="fill:#ffffff;fill-opacity:1;fill-rule:evenodd;stroke:none"
       id="path156" /><path
       d="m 2949.65,784.273 c -9.15,-8.136 -28.99,-22.378 -57.98,-35.605 1.01,-23.395 1.01,-43.742 1.01,-57.98 h -22.38 c -6.6,0 -13.73,1.523 -17.29,2.031 1.02,-6.102 1.53,-10.68 1.53,-16.274 0,-5.086 -1.02,-8.648 -1.53,-11.187 6.11,0.508 14.24,1.523 23.91,1.523 h 15.26 c 0,-40.687 -3.05,-129.699 -3.05,-152.078 0,-20.344 4.07,-43.742 21.36,-57.473 11.7,-9.156 31.53,-13.222 45.77,-13.222 16.79,0 42.73,7.117 57.47,14.746 -1.01,3.562 -2.03,6.613 -2.03,11.699 0,4.07 1.53,9.664 2.03,12.207 -10.16,-7.121 -19.32,-10.68 -30.51,-10.68 -34.08,0 -36.62,21.872 -36.62,97.145 0,21.363 1.53,75.785 1.53,97.656 27.97,0 33.56,0 55.44,-2.035 -1.02,5.086 -1.53,9.664 -1.53,15.258 0,5.09 0.51,8.141 1.53,12.715 l -18.82,-1.524 c -9.16,-0.507 -12.21,-0.507 -35.1,-0.507 1.53,76.292 1.53,84.937 3.56,92.058 l -3.56,1.527"
       style="fill:#ffffff;fill-opacity:1;fill-rule:nonzero;stroke:none"
       id="path158" /><path
       d="m 3047.68,450.617 c 11.69,1.528 22.88,3.055 34.58,3.055 11.19,0 19.83,-1.527 29.5,-3.055 0,6.106 -2.03,35.094 -2.03,41.707 -0.51,17.801 -1.53,70.192 -1.53,92.571 0,18.308 2.03,65.609 3.05,86.972 l 1.02,22.887 c -8.14,-1.524 -16.28,-3.051 -31.54,-3.051 -14.75,0 -23.9,1.527 -34.07,3.051 3.55,-35.602 5.08,-90.024 5.08,-126.137 0,-18.816 -0.51,-37.129 -1.53,-63.066 z m 31.53,290.93 c 18.31,0 35.6,15.769 35.6,35.098 0,18.816 -16.78,35.601 -35.6,35.601 -18.82,0 -35.1,-16.785 -35.1,-35.601 0,-19.329 16.79,-35.098 35.1,-35.098"
       style="fill:#ffffff;fill-opacity:1;fill-rule:evenodd;stroke:none"
       id="path160" /><path
       d="m 3163.55,571.16 c 0,-78.836 50.86,-126.644 127.66,-126.644 78.33,0 127.67,47.808 127.67,126.644 0,82.906 -49.34,127.156 -127.67,127.156 -76.8,0 -127.66,-48.828 -127.66,-127.156 z m 63.58,0.508 c 0,42.219 8.64,106.305 64.08,106.305 55.44,0 64.09,-63.071 64.09,-106.305 0,-43.23 -8.65,-106.809 -64.09,-106.809 -55.44,0 -64.08,63.579 -64.08,106.809"
       style="fill:#ffffff;fill-opacity:1;fill-rule:evenodd;stroke:none"
       id="path162" /><path
       d="m 3688.37,611.344 c 0,54.422 -29.5,85.957 -84.94,85.957 -39.17,0 -57.98,-16.789 -78.84,-44.762 0,25.434 0,27.465 2.54,42.215 -8.13,-1.524 -14.24,-3.051 -27.97,-3.051 -18.31,0 -28.48,2.035 -33.57,3.051 3.56,-37.637 4.07,-43.738 4.07,-108.336 0,-60.523 -0.51,-68.152 -5.09,-135.801 10.68,1.528 21.88,3.055 32.05,3.055 4.58,0 26.95,-2.547 32.04,-3.055 -2.54,34.586 -3.56,68.664 -3.56,114.949 0,17.293 1.53,52.387 8.65,67.137 8.14,16.785 25.94,29.5 45.27,29.5 21.86,0 41.19,-9.664 47.3,-33.566 3.56,-13.735 3.56,-55.442 3.56,-81.891 0,-23.906 -2.04,-71.715 -6.11,-96.129 9.67,1.02 21.87,3.055 33.06,3.055 11.19,0 21.87,-2.035 33.06,-3.055 -2.03,11.699 -3.56,37.129 -3.56,62.563 0,24.922 2.04,83.922 2.04,98.164"
       style="fill:#ffffff;fill-opacity:1;fill-rule:nonzero;stroke:none"
       id="path164" /><path
       d="m 1637.82,361.938 c -0.28,4.128 -0.28,9.636 -0.28,14.597 0,4.129 0.83,9.914 2.21,13.77 -6.06,1.101 -6.89,1.101 -8.27,1.101 -27.54,0 -40.76,-24.234 -44.07,-30.019 -9.08,-15.973 -9.91,-26.164 -12.11,-45.719 -17.35,0.277 -7.71,0 -20.93,1.102 0.27,-3.032 0.83,-5.508 0.83,-7.434 0,-2.481 -0.28,-4.961 -0.83,-7.438 3.3,0.274 6.33,0.825 11.84,0.825 h 8.81 c 0.28,-5.508 0.55,-27.817 0.55,-40.762 0,-13.219 -0.55,-26.988 -0.82,-48.469 -0.28,-16.25 -0.55,-19.281 -1.93,-27.816 4.68,0.551 11.84,1.652 17.9,1.652 5.23,0 12.12,-1.101 17.35,-1.652 -2.2,23.683 -2.75,95.289 -2.75,101.898 v 15.149 c 20.65,0 23.96,0 28.64,-0.825 -0.55,1.926 -1.1,4.129 -1.1,7.438 0,3.027 0.55,5.23 1.1,7.434 l -10.19,-0.825 c -4.96,-0.277 -6.61,-0.277 -19,-0.277 -2.48,7.988 -7.72,25.062 -7.72,32.5 0,17.074 13.23,17.625 18.46,17.625 3.3,0 12.94,-0.551 20.38,-5.508 l 1.93,1.653"
       style="fill:#ffffff;fill-opacity:1;fill-rule:nonzero;stroke:none"
       id="path166" /><path
       d="m 1637.83,250.945 c 0,-42.687 27.55,-68.574 69.13,-68.574 42.42,0 69.13,25.887 69.13,68.574 0,44.895 -26.71,68.856 -69.13,68.856 -41.58,0 -69.13,-26.442 -69.13,-68.856 z m 34.43,0.278 c 0,22.859 4.68,57.558 34.7,57.558 30.02,0 34.7,-34.148 34.7,-57.558 0,-23.41 -4.68,-57.836 -34.7,-57.836 -30.02,0 -34.7,34.426 -34.7,57.836"
       style="fill:#ffffff;fill-opacity:1;fill-rule:evenodd;stroke:none"
       id="path168" /><path
       d="m 1799.2,185.676 c 8.27,0.824 14.33,1.652 19.01,1.652 5.78,0 12.67,-1.379 15.97,-1.652 -1.65,17.074 -2.48,43.789 -2.48,61.414 0,19.004 1.38,23.137 3.31,27.265 3.3,7.161 12.12,14.875 24.51,14.875 1.38,0 11.57,0 16.25,-3.855 l 1.93,1.375 c -0.83,3.305 -1.38,7.434 -1.38,11.844 0,3.855 0.28,15.695 2.48,19.828 -2.2,0.551 -4.41,0.828 -7.16,0.828 -22.03,0 -33.05,-18.453 -40.49,-30.297 0,13.496 0,14.871 1.65,28.918 -4.4,-1.101 -9.09,-1.652 -15.69,-1.652 -7.16,0 -11.85,0.551 -18.18,1.652 1.38,-24.234 1.93,-31.121 1.93,-61.141 0,-10.742 0,-31.949 -0.55,-44.066 l -1.11,-26.988"
       style="fill:#ffffff;fill-opacity:1;fill-rule:nonzero;stroke:none"
       id="path170" /><path
       d="m 2012.24,366.344 c -4.96,-4.406 -15.7,-12.117 -31.4,-19.278 0.55,-12.671 0.55,-23.687 0.55,-31.398 h -12.12 c -3.58,0 -7.43,0.824 -9.36,1.102 0.55,-3.305 0.82,-5.786 0.82,-8.813 0,-2.754 -0.55,-4.684 -0.82,-6.059 3.3,0.274 7.71,0.825 12.95,0.825 h 8.26 c 0,-22.032 -1.66,-70.231 -1.66,-82.348 0,-11.016 2.21,-23.684 11.57,-31.121 6.34,-4.957 17.08,-7.16 24.79,-7.16 9.09,0 23.13,3.855 31.12,7.988 -0.55,1.926 -1.1,3.578 -1.1,6.332 0,2.203 0.82,5.234 1.1,6.609 -5.51,-3.855 -10.47,-5.781 -16.53,-5.781 -18.45,0 -19.82,11.844 -19.82,52.602 0,11.566 0.82,41.039 0.82,52.879 15.15,0 18.18,0 30.02,-1.102 -0.55,2.754 -0.82,5.234 -0.82,8.266 0,2.754 0.27,4.402 0.82,6.883 l -10.19,-0.825 c -4.96,-0.277 -6.61,-0.277 -19,-0.277 0.82,41.312 0.82,45.996 1.92,49.852 l -1.92,0.824"
       style="fill:#ffffff;fill-opacity:1;fill-rule:nonzero;stroke:none"
       id="path172" /><path
       d="m 2099.19,389.754 c -5.23,-1.102 -9.64,-1.652 -16.52,-1.652 -7.16,0 -13.22,0.55 -18.73,1.652 0.83,-14.598 1.93,-31.399 1.93,-42.414 l 0.27,-53.703 c 0,-58.391 0,-70.782 -2.2,-107.961 2.76,0.273 11.02,1.652 16.8,1.652 5.78,0 11.84,-0.828 17.35,-1.652 -1.38,24.785 -1.38,27.539 -1.38,63.617 0,19.004 1.11,25.34 3.31,32.223 4.41,13.773 17.07,17.902 27.27,17.902 11.29,0 20.65,-5.781 23.68,-17.074 1.65,-6.336 1.92,-13.496 1.92,-39.11 0,-19.004 -1.37,-42.136 -3.02,-57.558 3.85,0.273 12.39,1.652 18.45,1.652 6.06,0 11.57,-0.551 17.07,-1.652 -0.82,11.015 -1.65,36.629 -1.65,51.777 0,8.535 0.55,23.41 0.55,29.742 0,12.395 0,23.688 -6.33,33.602 -8.82,13.769 -23.96,18.453 -38.28,18.453 -15.7,0 -31.13,-5.785 -42.97,-22.586 0,33.875 0,53.43 1.93,84.277 l 0.55,8.813"
       style="fill:#ffffff;fill-opacity:1;fill-rule:nonzero;stroke:none"
       id="path174" /><path
       d="m 2331.36,250.672 c 0.83,20.93 -3.31,35.25 -7.98,44.066 -13.78,25.063 -41.59,25.063 -51.78,25.063 -32.5,0 -63.9,-20.934 -63.9,-66.653 0,-9.636 0.28,-34.148 18.46,-52.601 15.14,-15.422 39.65,-18.176 49.84,-18.176 26.44,0 44.34,11.84 46.27,14.043 l 2.48,11.844 c 0.55,1.93 1.38,3.855 2.2,5.785 l -3.02,1.926 c -9.09,-10.465 -26.72,-17.352 -39.11,-17.352 -43.79,0 -43.79,41.863 -43.79,52.055 z m -89.78,13.492 c 0.55,10.469 2.2,44.617 30.57,44.617 27.54,0 27.54,-31.121 27.54,-44.617 h -58.11"
       style="fill:#ffffff;fill-opacity:1;fill-rule:evenodd;stroke:none"
       id="path176" /><path
       d="m 1692.93,779.695 c 4.95,0.274 12.66,1.653 20.37,1.653 7.72,0 17.36,-1.379 21.49,-1.653 -12.4,26.715 -30.57,68.301 -41.04,92.262 -9.91,23.137 -26.44,61.691 -39.66,99.422 -3.03,-0.824 -5.78,-1.375 -8.81,-1.375 -3.31,0 -6.06,0.551 -9.09,1.375 -6.61,-22.582 -22.58,-58.387 -50.4,-120.629 l -31.95,-71.055 c 3.86,0.551 7.71,1.653 12.39,1.653 4.41,0 9.65,-1.102 13.23,-1.653 4.4,15.7 13.22,38.559 22.03,59.762 11.01,0.551 22.03,1.106 33.05,1.106 11.84,0 23.41,-0.555 35.25,-1.106 l 11.57,-29.191 z m -31.13,76.84 c -8.53,-0.551 -16.8,-1.101 -25.34,-1.101 -9.64,0 -19,0.824 -28.64,1.101 l 28.09,67.75 25.89,-67.75"
       style="fill:#ffffff;fill-opacity:1;fill-rule:evenodd;stroke:none"
       id="path178" /><path
       d="m 1748.3,983.773 c 1.92,-21.48 3.3,-43.238 3.3,-94.464 0,-6.61 0.28,-88.407 -2.75,-109.614 9.63,1.102 14.32,1.653 19,1.653 5.78,0 11.29,-1.102 16.8,-1.653 -3.31,31.121 -2.48,97.219 -2.48,102.727 0,28.367 0,71.609 2.76,101.351 -5.51,-0.824 -8.54,-1.652 -17.63,-1.652 -8.82,0 -12.12,0.551 -19,1.652"
       style="fill:#ffffff;fill-opacity:1;fill-rule:nonzero;stroke:none"
       id="path180" /><path
       d="m 1946.82,848.824 c 0,45.992 -30.57,65.274 -57.83,65.274 -18.45,0 -31.68,-9.09 -42.14,-23.41 0.55,56.457 0.55,62.515 2.2,93.085 -4.68,-0.824 -9.09,-1.652 -16.8,-1.652 -7.71,0 -12.95,0.551 -18.45,1.652 3.03,-50.949 3.31,-68.574 3.31,-104.656 0,-55.355 -1.11,-71.605 -2.76,-99.422 h 9.36 c 7.99,9.364 9.09,10.465 17.36,15.973 11.84,-15.973 26.43,-19.277 42.96,-19.277 40.21,0 62.79,35.254 62.79,72.433 z m -67.75,-59.765 c -31.12,0 -32.77,37.179 -32.77,54.257 0,22.309 4.68,53.977 33.32,53.977 30.57,0 33.05,-33.047 33.05,-51.223 0,-23.136 -5.23,-57.011 -33.6,-57.011"
       style="fill:#ffffff;fill-opacity:1;fill-rule:evenodd;stroke:none"
       id="path182" /><path
       d="m 2093.03,844.691 c 0.82,20.934 -3.31,35.254 -7.99,44.067 -13.77,25.062 -41.59,25.062 -51.78,25.062 -32.5,0 -63.89,-20.929 -63.89,-66.648 0,-9.641 0.27,-34.152 18.45,-52.606 15.15,-15.421 39.66,-18.175 49.85,-18.175 26.44,0 44.34,11.843 46.27,14.043 l 2.47,11.843 c 0.56,1.93 1.38,3.86 2.21,5.786 l -3.03,1.925 c -9.09,-10.465 -26.71,-17.347 -39.11,-17.347 -43.79,0 -43.79,41.859 -43.79,52.05 z m -89.79,13.497 c 0.55,10.464 2.21,44.617 30.57,44.617 27.54,0 27.54,-31.121 27.54,-44.617 h -58.11"
       style="fill:#ffffff;fill-opacity:1;fill-rule:evenodd;stroke:none"
       id="path184" /><path
       d="m 2121.35,779.695 c 8.26,0.825 14.33,1.653 19.01,1.653 5.78,0 12.66,-1.379 15.97,-1.653 -1.65,17.075 -2.48,43.789 -2.48,61.418 0,19 1.38,23.133 3.31,27.266 3.3,7.16 12.11,14.871 24.51,14.871 1.38,0 11.56,0 16.25,-3.855 l 1.92,1.375 c -0.82,3.304 -1.37,7.437 -1.37,11.843 0,3.856 0.27,15.7 2.48,19.828 -2.21,0.551 -4.41,0.829 -7.16,0.829 -22.04,0 -33.05,-18.454 -40.49,-30.297 0,13.496 0,14.875 1.65,28.918 -4.4,-1.102 -9.09,-1.653 -15.7,-1.653 -7.16,0 -11.84,0.551 -18.17,1.653 1.37,-24.235 1.93,-31.121 1.93,-61.141 0,-10.742 0,-31.945 -0.56,-44.066 l -1.1,-26.989"
       style="fill:#ffffff;fill-opacity:1;fill-rule:nonzero;stroke:none"
       id="path186" /><path
       d="m 2263.7,960.363 c -4.96,-4.406 -15.7,-12.117 -31.4,-19.277 0.55,-12.668 0.55,-23.688 0.55,-31.398 h -12.12 c -3.58,0 -7.43,0.828 -9.36,1.101 0.55,-3.305 0.83,-5.781 0.83,-8.812 0,-2.754 -0.56,-4.684 -0.83,-6.059 3.3,0.277 7.71,0.828 12.94,0.828 h 8.26 c 0,-22.035 -1.65,-70.23 -1.65,-82.348 0,-11.015 2.21,-23.687 11.57,-31.121 6.33,-4.961 17.08,-7.16 24.79,-7.16 9.09,0 23.13,3.852 31.12,7.985 -0.55,1.929 -1.1,3.578 -1.1,6.332 0,2.207 0.83,5.234 1.1,6.613 -5.51,-3.859 -10.47,-5.785 -16.52,-5.785 -18.46,0 -19.84,11.843 -19.84,52.605 0,11.567 0.83,41.035 0.83,52.879 15.15,0 18.18,0 30.02,-1.101 -0.55,2.753 -0.83,5.23 -0.83,8.261 0,2.754 0.28,4.407 0.83,6.883 l -10.19,-0.824 c -4.96,-0.277 -6.61,-0.277 -19,-0.277 0.82,41.312 0.82,45.996 1.93,49.851 l -1.93,0.824"
       style="fill:#ffffff;fill-opacity:1;fill-rule:nonzero;stroke:none"
       id="path188" /><path
       d="m 2352.86,852.406 c -25.62,-6.886 -44.34,-11.843 -44.34,-42.418 0,-10.738 6.05,-33.597 38,-33.597 14.32,0 28.37,7.433 36.91,18.726 3.3,-8.812 6.61,-16.801 22.86,-16.801 7.71,0 16.25,3.309 23.41,6.063 -0.56,1.652 -1.11,3.301 -1.11,4.957 0,1.652 0.55,3.305 1.11,4.957 -2.48,-1.105 -4.96,-2.203 -7.72,-2.203 -9.36,0 -9.64,6.609 -9.64,33.598 0,9.089 0.83,36.906 0.83,47.097 0,27.817 -20.38,41.313 -50.12,41.313 -14.32,0 -22.86,-2.758 -43.79,-15.426 0.27,-2.477 0.27,-4.957 0.27,-7.434 0,-4.683 -0.55,-8.265 -1.37,-13.496 1.37,0.274 3.02,0.551 4.4,0.551 1.38,0 2.76,-0.277 4.13,-0.551 1.65,6.61 8.82,19.551 29.75,19.551 14.87,0 26.71,-8.262 26.71,-29.191 0,-1.926 -0.27,-3.856 -1.1,-5.508 -1.38,-2.481 -3.58,-3.305 -19.83,-7.711 z m 29.46,-33.051 c 0,-14.324 -9.63,-26.167 -24.51,-26.167 -11.01,0 -18.17,9.089 -18.17,23.687 0,19.828 11.29,22.859 42.68,31.121 v -28.641"
       style="fill:#ffffff;fill-opacity:1;fill-rule:evenodd;stroke:none"
       id="path190" /><path
       d="m 2602.91,46.082 c 9.15,0.5078 23.39,3.0508 37.64,3.0508 14.24,0 32.04,-2.543 39.67,-3.0508 -22.89,49.336 -56.46,126.137 -75.79,170.387 -18.3,42.722 -48.82,113.929 -73.24,183.613 -5.59,-1.527 -10.68,-2.547 -16.28,-2.547 -6.1,0 -11.18,1.02 -16.78,2.547 -12.21,-41.711 -41.7,-107.828 -93.08,-222.777 l -59,-131.223 c 7.13,1.0157 14.25,3.0508 22.89,3.0508 8.14,0 17.8,-2.0351 24.42,-3.0508 8.14,28.9883 24.41,71.207 40.69,110.367 20.34,1.02 40.68,2.035 61.03,2.035 21.87,0 43.23,-1.015 65.1,-2.035 l 21.36,-53.914 z m -57.48,141.902 c -15.76,-1.015 -31.02,-2.035 -46.79,-2.035 -17.8,0 -35.09,1.528 -52.9,2.035 l 51.88,125.121 47.81,-125.121"
       style="fill:#ffffff;fill-opacity:1;fill-rule:evenodd;stroke:none"
       id="path192" /><path
       d="m 2698.04,46.082 c 15.26,1.5235 26.45,3.0508 35.1,3.0508 10.68,0 23.39,-2.543 29.5,-3.0508 -3.06,31.5313 -4.58,80.867 -4.58,113.422 0,35.094 2.54,42.723 6.1,50.351 6.11,13.223 22.38,27.465 45.27,27.465 2.54,0 21.36,0 30.01,-7.121 l 3.56,2.543 c -1.53,6.106 -2.55,13.735 -2.55,21.871 0,7.121 0.51,28.992 4.58,36.621 -4.07,1.02 -8.14,1.528 -13.22,1.528 -40.69,0 -61.04,-34.078 -74.77,-55.949 0,24.921 0,27.468 3.05,53.406 -8.14,-2.035 -16.78,-3.051 -28.99,-3.051 -13.22,0 -21.87,1.016 -33.57,3.051 2.54,-44.758 3.56,-57.477 3.56,-112.914 0,-19.836 0,-59 -1.02,-81.3792 l -2.03,-49.8438"
       style="fill:#ffffff;fill-opacity:1;fill-rule:nonzero;stroke:none"
       id="path194" /><path
       d="m 2953.28,379.734 c -9.15,-8.136 -28.99,-22.379 -57.98,-35.601 1.02,-23.399 1.02,-43.742 1.02,-57.985 h -22.38 c -6.62,0 -13.73,1.528 -17.3,2.036 1.02,-6.106 1.53,-10.68 1.53,-16.278 0,-5.086 -1.02,-8.644 -1.53,-11.187 6.11,0.508 14.25,1.523 23.91,1.523 h 15.26 c 0,-40.687 -3.05,-129.695 -3.05,-152.074 0,-20.3477 4.07,-43.7422 21.36,-57.4766 11.7,-9.1523 31.53,-13.2226 45.77,-13.2226 16.79,0 42.73,7.121 57.48,14.75 -1.02,3.5585 -2.03,6.6132 -2.03,11.6992 0,4.0664 1.52,9.664 2.03,12.207 -10.17,-7.1211 -19.33,-10.6836 -30.52,-10.6836 -34.08,0 -36.62,21.8711 -36.62,97.1486 0,21.359 1.53,75.785 1.53,97.652 27.97,0 33.56,0 55.44,-2.031 -1.02,5.086 -1.53,9.664 -1.53,15.258 0,5.086 0.51,8.136 1.53,12.715 l -18.82,-1.528 c -9.16,-0.508 -12.21,-0.508 -35.1,-0.508 1.53,76.293 1.53,84.942 3.56,92.063 l -3.56,1.523"
       style="fill:#ffffff;fill-opacity:1;fill-rule:nonzero;stroke:none"
       id="path196" /><path
       d="m 3038.59,103.555 c -1.02,-5.5941 -1.02,-14.7503 -3.56,-23.3948 -2.03,-7.6329 -6.1,-17.2969 -7.63,-21.3633 25.94,-11.1914 46.28,-19.836 75.28,-19.836 72.22,0 97.14,52.3868 97.14,83.9221 0,49.336 -36.62,61.035 -68.66,71.715 -38.15,12.715 -55.44,18.308 -55.44,40.687 0,20.856 16.78,33.57 41.2,33.57 31.02,0 40.69,-19.328 48.83,-35.601 h 8.13 c 1.02,11.187 2.55,25.43 12.72,45.266 -14.75,6.101 -37.64,15.257 -68.16,15.257 -56.46,0 -88.49,-33.058 -88.49,-78.324 0,-46.285 30,-59.512 40.18,-64.598 4.06,-2.035 27.97,-10.171 34.58,-12.714 23.91,-9.153 43.74,-15.766 43.74,-37.129 0,-18.3128 -12.72,-36.1136 -38.15,-36.1136 -47.3,0 -57.98,27.9766 -62.55,38.6566 h -9.16"
       style="fill:#ffffff;fill-opacity:1;fill-rule:nonzero;stroke:none"
       id="path198" /></g></svg>
