<!-- width="1000" height="100" -->
<svg viewBox="0 0 1000 100"  xmlns="http://www.w3.org/2000/svg"
    xmlns:xlink="http://www.w3.org/1999/xlink" version="1.1">
    <g>
        <g transform="translate(645 52)">
            <path
                d="M39.2 -7.6C44.9 4.8 39.6 25.9 26 35.8C12.5 45.6 -9.2 44.1 -21.1 34.3C-33 24.4 -35.1 6.2 -29.9 -5.4C-24.7 -17.1 -12.4 -22.1 2.2 -22.8C16.8 -23.5 33.5 -19.9 39.2 -7.6Z"
                fill="var(--fill)"></path>
        </g>
        <g transform="translate(226 45)">
            <path
                d="M15.8 -3.7C18 1.7 15.7 10 11.2 12.6C6.8 15.2 0.2 12 -5.4 7.8C-11 3.7 -15.5 -1.4 -14.5 -5.3C-13.4 -9.1 -6.7 -11.7 0 -11.7C6.8 -11.7 13.6 -9.2 15.8 -3.7Z"
                fill="var(--fill)"></path>
        </g>
        <g transform="translate(95 47)">
            <path
                d="M9.5 -6.4C10.7 0.7 9 5.4 5.8 7.7C2.6 10 -2.2 9.8 -5.3 7.5C-8.4 5.2 -9.7 0.8 -8.6 -6.1C-7.4 -13.1 -3.7 -22.6 0.2 -22.6C4.1 -22.7 8.3 -13.4 9.5 -6.4Z"
                fill="var(--fill)"></path>
        </g>
        <g transform="translate(917 49)">
            <path
                d="M24.6 -4.3C29.8 7.8 30.3 25.2 19.8 34.6C9.2 44 -12.5 45.5 -20.4 37.5C-28.3 29.6 -22.4 12.1 -16.7 -0.8C-11 -13.7 -5.5 -21.9 2.1 -22.6C9.7 -23.3 19.5 -16.4 24.6 -4.3Z"
                fill="var(--fill)"></path>
        </g>
        <g transform="translate(508 47)">
            <path
                d="M18.5 -3.1C21.5 3.3 19.8 14.1 13.5 18.7C7.2 23.3 -3.7 21.7 -10.7 16.2C-17.7 10.7 -20.9 1.5 -18.5 -4.1C-16 -9.6 -8 -11.5 -0.1 -11.4C7.8 -11.4 15.5 -9.5 18.5 -3.1Z"
                fill="var(--fill)"></path>
        </g>
        <g transform="translate(383 54)">
            <path
                d="M9.5 -4.8C10.4 -0.3 7.8 3.5 4.6 5.7C1.4 7.8 -2.5 8.3 -7.2 5.8C-11.9 3.4 -17.4 -2.1 -16.4 -6.7C-15.3 -11.4 -7.7 -15.4 -1.7 -14.9C4.3 -14.3 8.6 -9.2 9.5 -4.8Z"
                fill="var(--fill)"></path>
        </g>
        <g transform="translate(781 50)">
            <path
                d="M10.1 -5.8C11.1 0 8.8 4.5 5.1 7.1C1.5 9.8 -3.5 10.8 -7.3 8.4C-11 6.1 -13.6 0.4 -12.2 -5.9C-10.7 -12.2 -5.4 -19.2 -0.4 -19.1C4.5 -18.9 9 -11.7 10.1 -5.8Z"
                fill="var(--fill)"></path>
        </g>
    </g>
</svg>