<svg fill="none" class="curve" viewBox="0 0 1440 96" preserveAspectRatio="none"
    xmlns="http://www.w3.org/2000/svg"
    xmlns:xlink="http://www.w3.org/1999/xlink" version="1.1">

    <path
        d="M0 13L7.7 17.2C15.3 21.3 30.7 29.7 46.2 33.8C61.7 38 77.3 38 92.8 35.2C108.3 32.3 123.7 26.7 139.2 21.7C154.7 16.7 170.3 12.3 185.8 11.2C201.3 10 216.7 12 232.2 15C247.7 18 263.3 22 278.8 26.3C294.3 30.7 309.7 35.3 325.2 36C340.7 36.7 356.3 33.3 371.8 32.5C387.3 31.7 402.7 33.3 418.2 32.8C433.7 32.3 449.3 29.7 464.8 25.8C480.3 22 495.7 17 511 13.7C526.3 10.3 541.7 8.7 557.2 12.3C572.7 16 588.3 25 603.8 30.2C619.3 35.3 634.7 36.7 650.2 32.7C665.7 28.7 681.3 19.3 696.8 15.8C712.3 12.3 727.7 14.7 743.2 19.3C758.7 24 774.3 31 789.8 31.7C805.3 32.3 820.7 26.7 836.2 24C851.7 21.3 867.3 21.7 882.8 22.5C898.3 23.3 913.7 24.7 929 24.2C944.3 23.7 959.7 21.3 975.2 18.8C990.7 16.3 1006.3 13.7 1021.8 11.8C1037.3 10 1052.7 9 1068.2 9.2C1083.7 9.3 1099.3 10.7 1114.8 10.8C1130.3 11 1145.7 10 1161.2 11.3C1176.7 12.7 1192.3 16.3 1207.8 17.7C1223.3 19 1238.7 18 1254.2 20.3C1269.7 22.7 1285.3 28.3 1300.8 29.5C1316.3 30.7 1331.7 27.3 1347.2 24.5C1362.7 21.7 1378.3 19.3 1393.8 21.8C1409.3 24.3 1424.7 31.7 1432.3 35.3L1440 39L1440 0L1432.3 0C1424.7 0 1409.3 0 1393.8 0C1378.3 0 1362.7 0 1347.2 0C1331.7 0 1316.3 0 1300.8 0C1285.3 0 1269.7 0 1254.2 0C1238.7 0 1223.3 0 1207.8 0C1192.3 0 1176.7 0 1161.2 0C1145.7 0 1130.3 0 1114.8 0C1099.3 0 1083.7 0 1068.2 0C1052.7 0 1037.3 0 1021.8 0C1006.3 0 990.7 0 975.2 0C959.7 0 944.3 0 929 0C913.7 0 898.3 0 882.8 0C867.3 0 851.7 0 836.2 0C820.7 0 805.3 0 789.8 0C774.3 0 758.7 0 743.2 0C727.7 0 712.3 0 696.8 0C681.3 0 665.7 0 650.2 0C634.7 0 619.3 0 603.8 0C588.3 0 572.7 0 557.2 0C541.7 0 526.3 0 511 0C495.7 0 480.3 0 464.8 0C449.3 0 433.7 0 418.2 0C402.7 0 387.3 0 371.8 0C356.3 0 340.7 0 325.2 0C309.7 0 294.3 0 278.8 0C263.3 0 247.7 0 232.2 0C216.7 0 201.3 0 185.8 0C170.3 0 154.7 0 139.2 0C123.7 0 108.3 0 92.8 0C77.3 0 61.7 0 46.2 0C30.7 0 15.3 0 7.7 0L0 0Z"
        ></path>
</svg>
