<?xml version="1.0" encoding="UTF-8"?>
<svg id="Layer_1" data-name="Layer 1" xmlns="http://www.w3.org/2000/svg" viewBox="0 0 864 1157.29" height="100%" width="100">
  <defs>
    <style>
      .cls-1 {
        fill: #464c44;
      }

      .cls-2 {
        fill: #c1ccc4;
      }

      .cls-3 {
        fill: #f0e7da;
      }

      .cls-4 {
        fill: #c4864b;
      }

      .cls-5 {
        fill: #c3b37d;
      }
    </style>
  </defs>
  <path class="cls-1" d="M799.89,387.91H64.11c-6.75,0-12.22,5.45-12.22,12.2,0,95.43-.06,438.12,0,439.76,2.01,47.27,18.68,90.86,50,130.79,33.47,42.67,79.26,76.33,137.41,100.96,57.46,24.35,120.73,36.64,189.76,36.93v.03c.09,0,.18-.02.27-.02.72,0,1.43.02,2.15.02,1.02,0,2.03-.03,3.05-.03.13.01.26.02.39.03v-.04c68.64-.4,131.73-12.68,189.25-36.92,58.47-24.63,104.45-58.29,137.92-100.96,31.31-39.93,47.98-83.53,50-130.79.07-1.64.02-344.33,0-439.76,0-6.75-5.47-12.2-12.22-12.2Z"/>
  <path class="cls-5" d="M140.94,939.84c29.51,37.63,69.89,67.3,121.16,89.02,51.26,21.73,107.75,32.58,169.45,32.58s118.33-10.86,169.91-32.58c51.55-21.72,92.1-51.4,121.61-89.02,27.61-35.21,42.31-73.65,44.08-115.32.2-4.71-4.81-8.64-11.09-8.64H107.94c-6.28,0-11.29,3.92-11.09,8.64,1.78,41.68,16.47,80.12,44.08,115.32Z"/>
  <path class="cls-2" d="M412.44,636.52c-5.2-8.83-12.34-15.78-21.43-20.88-9.07-5.08-19.02-7.63-29.86-7.64h0s-6.2,0-6.2,0v-58.19c0-12.1-9.78-21.91-21.85-21.91H118.52c-12.06,0-21.85,9.81-21.85,21.91v104.54c0,23.18,2.12,44.45,6.35,63.83,4.23,19.37,10.02,34.65,17.38,45.84,7.35,11.18,15.45,16.78,24.3,16.78h162.16c8.82-.03,16.92-5.62,24.3-16.78,6.74-10.2,12.15-23.83,16.26-40.82h13.73c10.84-.01,20.8-2.56,29.86-7.64,9.09-5.09,16.23-12.06,21.43-20.88,5.2-8.83,7.8-18.52,7.8-29.07s-2.6-20.25-7.8-29.07ZM393.5,683.5c-3.22,5.47-7.55,9.67-13.24,12.86-5.78,3.24-12.04,4.82-19.11,4.83h-9.48c2.17-14.65,3.28-30.26,3.28-46.86v-24.35h6.18c7.09,0,13.35,1.59,19.13,4.83,5.69,3.19,10.02,7.4,13.24,12.87,3.2,5.43,4.76,11.29,4.76,17.91s-1.56,12.48-4.76,17.91Z"/>
  <path class="cls-4" d="M118.89,464.28c14.75,8.82,34.94,15.79,60.58,20.88,25.63,5.1,53.88,7.64,84.72,7.64s59.17-2.55,84.95-7.64c25.78-5.09,46.05-12.06,60.8-20.88,13.81-8.26,21.15-17.27,22.04-27.05.1-1.11-2.41-2.03-5.54-2.03H102.39c-3.14,0-5.64.92-5.54,2.03.89,9.77,8.24,18.79,22.04,27.05Z"/>
  <path class="cls-3" d="M734.4,660.4c1.64-.74,3.26-1.55,4.85-2.45,9.04-5.09,16.15-12.06,21.35-20.88,5.2-8.83,7.8-18.52,7.8-29.07s-2.6-20.25-7.8-29.07c-5.2-8.82-12.32-15.78-21.35-20.88-1.59-.89-3.2-1.71-4.85-2.45-4.49-2.01-4.49-8.37,0-10.39,1.64-.74,3.26-1.55,4.85-2.45,9.04-5.09,16.15-12.06,21.35-20.88,5.2-8.82,7.8-18.52,7.8-29.07s-2.6-20.25-7.8-29.07c-5.2-8.82-12.32-15.78-21.35-20.88-9.03-5.09-18.99-7.64-29.86-7.64h-199.34c-10.87,0-20.83,2.55-29.86,7.64-9.04,5.1-16.15,12.06-21.35,20.88-5.2,8.82-7.8,18.52-7.8,29.07s2.6,20.25,7.8,29.07c5.2,8.82,12.32,15.79,21.35,20.88,1.59.9,3.2,1.71,4.85,2.45,4.49,2.01,4.49,8.37,0,10.39-1.64.74-3.26,1.55-4.85,2.45-9.04,5.1-16.15,12.06-21.35,20.88-5.2,8.82-7.8,18.52-7.8,29.07s2.6,20.25,7.8,29.07c5.2,8.82,12.32,15.79,21.35,20.88,1.59.9,3.2,1.71,4.85,2.45,4.49,2.01,4.49,8.37,0,10.39-1.64.74-3.26,1.55-4.85,2.45-9.04,5.1-16.15,12.06-21.35,20.88-5.2,8.82-7.8,18.52-7.8,29.07s2.6,20.25,7.8,29.07c5.2,8.83,12.32,15.79,21.35,20.88,9.03,5.1,18.99,7.64,29.86,7.64h199.34c10.87,0,20.83-2.55,29.86-7.64,9.04-5.09,16.15-12.06,21.35-20.88,5.2-8.82,7.8-18.52,7.8-29.07s-2.6-20.25-7.8-29.07c-5.2-8.82-12.32-15.78-21.35-20.88-1.59-.89-3.2-1.71-4.85-2.45-4.49-2.01-4.49-8.37,0-10.39Z"/>
  <g>
    <path class="cls-1" d="M55.67,352.29c-2.53,0-3.8-1.27-3.8-3.82V59.32c0-2.55,1.27-3.82,3.8-3.82h101.37c43.64,0,80.04,14.16,109.18,42.46,29.14,28.31,43.72,63.62,43.72,105.93s-14.57,77.63-43.72,105.93c-29.14,28.31-65.54,42.46-109.18,42.46H55.67ZM153.24,143.39h-8.45v121.01h8.45c19.14,0,34.28-5.37,45.41-16.13,11.12-10.75,16.68-25.54,16.68-44.37s-5.56-33.61-16.68-44.37c-11.13-10.76-26.26-16.14-45.41-16.14Z"/>
    <path class="cls-1" d="M323.87,55.5h107.7c33.79,0,61.73,10.34,83.84,30.99,22.1,20.67,33.15,46.99,33.15,78.97s-11.05,58.45-33.15,79.4c-22.11,20.95-50.05,31.42-83.84,31.42h-18.58v72.18c0,2.55-1.27,3.82-3.8,3.82h-85.32c-2.53,0-3.8-1.27-3.8-3.82V59.32c0-2.55,1.27-3.82,3.8-3.82ZM412.99,134.9v61.99h8.45c10.14,0,18.37-2.9,24.71-8.71,6.33-5.8,9.5-13.37,9.5-22.71s-3.17-16.41-9.5-22.08c-6.34-5.66-14.57-8.49-24.71-8.49h-8.45Z"/>
    <path class="cls-1" d="M569.05,282.23c-13.94-23.78-20.91-49.89-20.91-78.34s7.11-54.56,21.33-78.34c14.22-23.78,33.64-42.52,58.29-56.26,24.64-13.72,51.88-20.59,81.73-20.59s58.85,6.51,83.63,19.53c1.69.85,2.39,2.12,2.11,3.82l-10.98,79.82c-.28,1.42-.99,2.41-2.11,2.97-1.13.57-2.26.57-3.38,0-22.25-11.89-44.63-17.83-67.16-17.83-20.27,0-37.03,6.3-50.26,18.89-13.24,12.6-19.85,28.59-19.85,47.98s6.55,35.39,19.64,47.98c13.09,12.6,29.63,18.89,49.63,18.89,5.91,0,12.1-.85,18.58-2.55v-9.77h-41.39c-2.54,0-3.8-1.27-3.8-3.82v-70.48c0-2.55,1.27-3.82,3.8-3.82h120.38c2.53,0,3.8,1.27,3.8,3.82v171.11c0,2.55-1.27,3.82-3.8,3.82h-102.64c-29.01,0-55.54-6.86-79.62-20.59-24.07-13.73-43.08-32.48-57.02-56.26Z"/>
  </g>
</svg>