<?xml version="1.0" encoding="UTF-8"?>
<svg id="Layer_1" data-name="Layer 1" xmlns="http://www.w3.org/2000/svg" viewBox="0 0 2389.26 864" height="100%" width="200">
  <defs>
    <style>
      .cls-1 {
        fill: #464c44;
      }

      .cls-2 {
        fill: #c1ccc4;
      }

      .cls-3 {
        fill: #f0e7da;
      }

      .cls-4 {
        fill: #c4864b;
      }

      .cls-5 {
        fill: #a75e3a;
      }

      .cls-6 {
        fill: #c3b37d;
      }
    </style>
  </defs>
  <path class="cls-1" d="M906.82,464.97c-3.22,0-4.83-1.61-4.83-4.83V94.36c0-3.22,1.61-4.83,4.83-4.83h128.91c55.5,0,101.78,17.91,138.84,53.71,37.06,35.81,55.59,80.48,55.59,134.01s-18.53,98.21-55.59,134.01c-37.06,35.81-83.34,53.71-138.84,53.71h-128.91ZM1030.89,200.71h-10.75v153.08h10.75c24.34,0,43.59-6.8,57.74-20.41,14.14-13.6,21.21-32.31,21.21-56.13s-7.07-42.52-21.21-56.13c-14.15-13.6-33.39-20.41-57.74-20.41Z"/>
  <g>
    <path class="cls-1" d="M843.58,40.53H44.23c-7.33,0-13.27,5.92-13.27,13.25,0,103.68-.07,475.98,0,477.76,2.19,51.35,20.3,98.71,54.32,142.09,36.36,46.36,86.11,82.93,149.29,109.69,62.43,26.46,131.16,39.81,206.15,40.12v.03c.1,0,.2-.02.3-.03.78,0,1.55.03,2.33.03,1.11,0,2.21-.03,3.32-.04.14.01.28.03.42.04v-.04c74.57-.43,143.11-13.78,205.61-40.11,63.52-26.76,113.48-63.33,149.84-109.69,34.02-43.38,52.13-90.74,54.32-142.09.08-1.78.02-374.08,0-477.76,0-7.33-5.94-13.25-13.27-13.25Z"/>
    <path class="cls-6" d="M127.69,640.15c32.06,40.88,75.93,73.12,131.63,96.72,55.69,23.6,117.06,35.4,184.09,35.4s128.56-11.8,184.59-35.4c56.01-23.6,100.06-55.84,132.12-96.72,30-38.25,45.96-80.01,47.89-125.29.22-5.12-5.23-9.38-12.05-9.38H91.84c-6.82,0-12.26,4.26-12.05,9.38,1.93,45.28,17.9,87.04,47.89,125.29Z"/>
    <path class="cls-2" d="M422.66,310.61c-5.65-9.59-13.41-17.15-23.28-22.68-9.85-5.52-20.66-8.29-32.44-8.3h0s-6.74,0-6.74,0v-63.22c0-13.15-10.63-23.8-23.73-23.8H103.33c-13.11,0-23.73,10.66-23.73,23.8v113.57c0,25.18,2.3,48.3,6.9,69.34,4.6,21.05,10.89,37.64,18.88,49.8,7.99,12.15,16.79,18.23,26.4,18.23h176.17c9.59-.04,18.39-6.11,26.4-18.23,7.32-11.08,13.2-25.89,17.67-44.35h14.92c11.78-.02,22.59-2.78,32.44-8.3,9.87-5.53,17.63-13.1,23.28-22.68,5.65-9.59,8.48-20.12,8.48-31.59s-2.82-22-8.48-31.59ZM402.07,361.66c-3.5,5.94-8.2,10.51-14.38,13.97-6.28,3.52-13.08,5.24-20.76,5.25h-10.3c2.36-15.92,3.56-32.87,3.56-50.91v-26.46h6.71c7.7.01,14.5,1.73,20.78,5.25,6.18,3.47,10.89,8.04,14.39,13.98,3.48,5.9,5.17,12.27,5.17,19.46s-1.69,13.56-5.17,19.46Z"/>
    <path class="cls-4" d="M103.74,123.49c16.03,9.59,37.96,17.15,65.82,22.68,27.85,5.54,58.53,8.3,92.04,8.3s64.28-2.77,92.29-8.3c28.01-5.53,50.03-13.1,66.06-22.68,15-8.97,22.98-18.77,23.95-29.39.11-1.2-2.61-2.2-6.02-2.2H85.82c-3.41,0-6.13,1-6.02,2.2.96,10.62,8.95,20.41,23.95,29.39Z"/>
    <path class="cls-3" d="M772.44,336.56c1.79-.8,3.54-1.69,5.26-2.66,9.82-5.53,17.55-13.1,23.2-22.68,5.65-9.59,8.47-20.12,8.47-31.59s-2.83-22-8.47-31.59c-5.65-9.59-13.38-17.15-23.2-22.68-1.72-.97-3.48-1.86-5.26-2.66-4.88-2.19-4.88-9.1,0-11.28,1.79-.8,3.54-1.69,5.26-2.66,9.82-5.53,17.55-13.1,23.2-22.68,5.65-9.59,8.47-20.12,8.47-31.59s-2.83-22-8.47-31.59c-5.65-9.59-13.38-17.15-23.2-22.68-9.81-5.53-20.63-8.3-32.44-8.3h-216.57c-11.81,0-22.63,2.77-32.44,8.3-9.82,5.54-17.55,13.1-23.2,22.68-5.65,9.59-8.47,20.12-8.47,31.59s2.83,22,8.47,31.59c5.65,9.59,13.38,17.15,23.2,22.68,1.72.97,3.48,1.86,5.26,2.66,4.88,2.19,4.88,9.1,0,11.28-1.79.8-3.54,1.69-5.26,2.66-9.82,5.54-17.55,13.1-23.2,22.68-5.65,9.59-8.47,20.12-8.47,31.59s2.83,22,8.47,31.59c5.65,9.59,13.38,17.15,23.2,22.68,1.72.97,3.48,1.86,5.26,2.66,4.88,2.19,4.88,9.1,0,11.28-1.79.8-3.54,1.69-5.26,2.66-9.82,5.54-17.55,13.1-23.2,22.68-5.65,9.59-8.47,20.12-8.47,31.59s2.83,22,8.47,31.59c5.65,9.59,13.38,17.15,23.2,22.68,9.81,5.54,20.63,8.3,32.44,8.3h216.57c11.81,0,22.63-2.77,32.44-8.3,9.82-5.53,17.55-13.1,23.2-22.68,5.65-9.59,8.47-20.12,8.47-31.59s-2.83-22-8.47-31.59c-5.65-9.59-13.38-17.15-23.2-22.68-1.72-.97-3.48-1.86-5.26-2.66-4.88-2.19-4.88-9.1,0-11.28Z"/>
  </g>
  <g>
    <path class="cls-1" d="M1376.53,464.25c-41.09-4.64-73.96-21.25-98.61-49.84-24.65-28.58-35.01-61.98-31.08-100.22,4.28-38.59,21.07-69.4,50.37-92.45,29.29-23.04,63.78-32.42,103.44-28.14,37.16,4.29,66.63,19.56,88.43,45.82,21.79,26.26,31.97,58.68,30.55,97.27,0,2.5-1.26,4.11-3.75,4.82l-153.28,31.08c6.78,4.29,14.82,6.97,24.12,8.04,24.65,2.86,53.41-4.82,86.28-23.04,1.43-.71,2.86-.8,4.29-.27,1.43.54,2.32,1.52,2.68,2.95l18.76,74.49c.35,2.5-.53,4.29-2.68,5.36-17.51,9.65-36.8,16.61-57.88,20.9-21.09,4.29-41.63,5.36-61.63,3.22ZM1347.59,305.62l70.21-14.47c-6.79-7.86-15.36-12.33-25.72-13.4-10.01-1.07-18.94.9-26.8,5.9-7.86,5.01-13.76,12.32-17.69,21.97Z"/>
    <path class="cls-1" d="M1797.22,207.28c1.07,1.26,1.25,2.77.54,4.55l-82,244.92c-.72,2.14-2.14,3.22-4.28,3.22h-117.9c-2.15,0-3.75-1.07-4.83-3.22l-81.46-244.92c-.71-1.78-.54-3.3.53-4.55,1.07-1.25,2.32-1.88,3.75-1.88h109.87c2.5,0,3.93,1.26,4.29,3.75l26.8,115.76,26.8-115.76c.35-2.5,1.78-3.75,4.29-3.75h109.87c1.42,0,2.68.63,3.75,1.88Z"/>
    <path class="cls-1" d="M1824.56,235.95c27.51-26.08,61.81-39.12,102.9-39.12s75.3,13.05,102.63,39.12c27.33,26.08,41,58.42,41,97s-13.67,70.83-41,96.73c-27.33,25.91-61.55,38.85-102.63,38.85s-75.39-12.94-102.9-38.85c-27.52-25.9-41.27-58.15-41.27-96.73s13.75-70.92,41.27-97ZM1900.66,359.75c7.14,7.15,15.99,10.72,26.53,10.72s19.37-3.57,26.53-10.72c7.14-7.14,10.72-16.16,10.72-27.06s-3.58-19.91-10.72-27.06c-7.15-7.14-15.99-10.72-26.53-10.72s-19.39,3.58-26.53,10.72c-7.15,7.15-10.72,16.17-10.72,27.06s3.56,19.92,10.72,27.06Z"/>
    <path class="cls-1" d="M2085.02,457.29c-3.21,0-4.82-1.61-4.82-4.82v-130.23c0-38.59,13.57-71.45,40.73-98.61,27.15-27.15,59.93-40.73,98.34-40.73s71.19,13.58,98.34,40.73c27.15,27.16,40.73,60.02,40.73,98.61v130.23c0,3.22-1.61,4.82-4.82,4.82h-108.79c-3.21,0-4.82-1.61-4.82-4.82v-130.23c0-5.71-1.97-10.63-5.9-14.74-3.94-4.1-8.76-6.16-14.47-6.16s-10.63,2.06-14.74,6.16c-4.11,4.11-6.16,9.03-6.16,14.74v130.23c0,3.22-1.61,4.82-4.82,4.82h-108.79Z"/>
  </g>
  <g>
    <path class="cls-5" d="M1261.28,549.67c10.17-9.64,23.1-14.46,38.79-14.46s28.62,4.79,38.79,14.36c10.17,9.57,15.26,21.74,15.26,36.5,0,13.83-4.49,25.53-13.46,35.1-8.97,9.57-19.98,14.36-33.01,14.36-6.91,0-13.1-1.53-18.55-4.59v48.86c0,1.2-.6,1.8-1.79,1.8h-39.49c-1.2,0-1.79-.6-1.79-1.8v-93.34c0-14.89,5.09-27.16,15.26-36.8ZM1290.3,595.75c2.66,2.73,5.98,4.09,9.97,4.09s7.31-1.36,9.97-4.09c2.66-2.73,3.99-6.08,3.99-10.07s-1.33-7.35-3.99-10.07c-2.66-2.72-5.98-4.09-9.97-4.09s-7.31,1.36-9.97,4.09c-2.66,2.73-3.99,6.09-3.99,10.07s1.33,7.35,3.99,10.07Z"/>
    <path class="cls-5" d="M1371.08,551.97c10.24-9.7,23-14.56,38.29-14.56s28.02,4.86,38.19,14.56c10.17,9.71,15.26,21.74,15.26,36.1s-5.09,26.36-15.26,36c-10.17,9.64-22.9,14.46-38.19,14.46s-28.06-4.82-38.29-14.46c-10.24-9.64-15.36-21.64-15.36-36s5.12-26.39,15.36-36.1ZM1399.4,598.04c2.66,2.66,5.95,3.99,9.87,3.99s7.21-1.33,9.87-3.99c2.66-2.66,3.99-6.01,3.99-10.07s-1.33-7.41-3.99-10.07c-2.66-2.66-5.95-3.99-9.87-3.99s-7.22,1.33-9.87,3.99c-2.66,2.66-3.99,6.02-3.99,10.07s1.33,7.41,3.99,10.07Z"/>
    <path class="cls-5" d="M1507.3,637.33c-13.17,0-23.24-3.49-30.22-10.47-6.98-6.98-10.47-16.99-10.47-30.02v-97.33c0-1.2.6-1.8,1.79-1.8h39.49c1.2,0,1.8.6,1.8,1.8v41.68h18.95c1.2,0,1.8.6,1.8,1.79v30.52c0,1.2-.6,1.8-1.8,1.8h-18.95v15.96c0,6.12,2.92,9.17,8.78,9.17,2.66,0,5.85-.6,9.57-1.79.66-.13,1.23-.03,1.69.3.47.33.7.83.7,1.49v31.51c0,.93-.4,1.53-1.2,1.79-6.52,2.39-13.83,3.59-21.94,3.59Z"/>
    <path class="cls-5" d="M1577.31,637.33c-13.17,0-23.24-3.49-30.22-10.47-6.98-6.98-10.47-16.99-10.47-30.02v-97.33c0-1.2.6-1.8,1.79-1.8h39.49c1.2,0,1.8.6,1.8,1.8v41.68h18.95c1.2,0,1.8.6,1.8,1.79v30.52c0,1.2-.6,1.8-1.8,1.8h-18.95v15.96c0,6.12,2.92,9.17,8.78,9.17,2.66,0,5.85-.6,9.57-1.79.66-.13,1.23-.03,1.69.3.47.33.7.83.7,1.49v31.51c0,.93-.4,1.53-1.2,1.79-6.52,2.39-13.83,3.59-21.94,3.59Z"/>
    <path class="cls-5" d="M1653.1,636.93c-15.29-1.73-27.53-7.91-36.7-18.55-9.18-10.64-13.03-23.07-11.57-37.3,1.6-14.36,7.84-25.83,18.75-34.41,10.9-8.57,23.74-12.06,38.49-10.47,13.83,1.6,24.8,7.28,32.91,17.05,8.11,9.77,11.9,21.84,11.37,36.2,0,.93-.47,1.53-1.4,1.8l-57.04,11.57c2.53,1.6,5.52,2.59,8.98,2.99,9.17,1.06,19.88-1.79,32.11-8.58.53-.26,1.06-.3,1.6-.1.53.2.86.57,1,1.1l6.98,27.72c.13.93-.2,1.6-1,2-6.52,3.59-13.7,6.18-21.54,7.78-7.85,1.6-15.49,2-22.94,1.2ZM1642.33,577.9l26.13-5.39c-2.53-2.92-5.72-4.59-9.57-4.99-3.73-.4-7.05.33-9.97,2.19-2.93,1.86-5.12,4.59-6.58,8.18Z"/>
    <path class="cls-5" d="M1779.75,538.4c1.2,0,1.8.6,1.8,1.8v33.71c0,1.2-.6,1.79-1.8,1.79-2.92,0-5.68.27-8.27.8-2.6.53-5.36,1.49-8.28,2.89-2.93,1.4-5.22,3.59-6.88,6.58-1.67,2.99-2.49,6.62-2.49,10.87v36.7c0,1.2-.6,1.79-1.79,1.79h-39.49c-1.2,0-1.79-.6-1.79-1.79v-92.75c0-1.2.6-1.79,1.79-1.79h37.1c1.2,0,1.79.6,1.79,1.79v8.58c6.12-7.31,15.56-10.97,28.32-10.97Z"/>
    <path class="cls-5" d="M1888.64,541.4c.4.53.46,1.07.2,1.6l-48.27,132.03c-.27.66-.87,1-1.8,1h-40.89c-.67,0-1.17-.27-1.49-.8-.34-.53-.37-1.07-.1-1.6l18.15-38.1-33.71-92.54c-.27-.53-.2-1.06.2-1.6.4-.53.86-.8,1.4-.8h40.89c.93,0,1.46.47,1.6,1.4l9.97,39.49,9.97-39.49c.13-.93.66-1.4,1.6-1.4h40.89c.53,0,1,.27,1.4.8Z"/>
    <path class="cls-5" d="M2037.23,591.46c0,9.57-2.66,18.22-7.98,25.93,4.25,6.65,6.38,13.96,6.38,21.94,0,13.29-4.69,23.96-14.06,32.01-9.37,8.04-21.71,12.07-37,12.07-19.55,0-36.03-6.98-49.46-20.94-.8-.8-.86-1.6-.2-2.39l18.55-23.93c.4-.4.86-.63,1.4-.7.53-.07,1,.1,1.39.5,4.65,4.78,9.11,8.21,13.36,10.27,4.26,2.06,8.78,3.09,13.56,3.09,5.05,0,8.97-1.03,11.77-3.09,2.79-2.06,4.19-4.89,4.19-8.48v-.4c-3.99,1.06-8.31,1.6-12.96,1.6-14.49,0-26.63-4.52-36.4-13.56-9.77-9.04-14.66-20.34-14.66-33.91,0-7.44,1.6-14.36,4.79-20.74,3.99-7.71,10.27-13.96,18.85-18.75,8.58-4.79,18.31-7.44,29.22-7.98.66,0,1.46.07,2.39.2,7.58-8.24,16.95-14.23,28.12-17.95.93-.4,1.6-.13,2,.8l13.76,27.13c.26.4.3.87.1,1.4-.2.53-.57.87-1.1,1-3.19,1.2-6.05,2.46-8.58,3.79,1.46,1.6,2.79,3.13,3.99,4.59,5.72,7.58,8.58,16.42,8.58,26.53ZM1976.9,600.83c2.46,2.53,5.55,3.79,9.27,3.79s6.81-1.26,9.27-3.79c2.46-2.53,3.69-5.65,3.69-9.37s-1.23-6.85-3.69-9.37c-2.46-2.52-5.55-3.79-9.27-3.79s-6.82,1.27-9.27,3.79c-2.46,2.53-3.69,5.65-3.69,9.37s1.23,6.85,3.69,9.37Z"/>
    <path class="cls-5" d="M2143.14,539c1.2,0,1.8.6,1.8,1.79v48.47c0,14.36-5.06,26.59-15.16,36.7-10.11,10.11-22.31,15.16-36.6,15.16s-26.49-5.05-36.6-15.16c-10.11-10.1-15.16-22.34-15.16-36.7v-48.47c0-1.2.6-1.79,1.79-1.79h40.49c1.2,0,1.79.6,1.79,1.79v48.47c0,2.26.77,4.12,2.3,5.58,1.52,1.47,3.35,2.19,5.48,2.19s3.95-.73,5.48-2.19c1.53-1.46,2.3-3.32,2.3-5.58v-48.47c0-1.2.53-1.79,1.6-1.79h40.49Z"/>
    <path class="cls-5" d="M2172.26,536.01c-5.05,0-9.64-1.49-13.76-4.49-4.12-2.99-6.85-6.95-8.18-11.87-1.6-5.85-.73-11.47,2.59-16.85,3.32-5.38,8.08-8.91,14.26-10.57,6.18-1.66,12.03-1,17.55,2,5.52,2.99,9.08,7.45,10.67,13.36,1.6,5.92.77,11.57-2.49,16.96-3.26,5.38-8.01,8.94-14.26,10.67-2.13.53-4.26.8-6.38.8ZM2192.4,635.34h-39.29c-1.2,0-1.79-.6-1.79-1.79v-93.14c0-1.2.6-1.79,1.79-1.79h39.29c1.2,0,1.8.6,1.8,1.79v93.14c0,1.2-.6,1.79-1.8,1.79Z"/>
    <path class="cls-5" d="M2243.66,635.94h-39.29c-1.2,0-1.79-.6-1.79-1.8v-139.81c0-1.2.6-1.79,1.79-1.79h39.29c1.2,0,1.79.6,1.79,1.79v139.81c0,1.2-.6,1.8-1.79,1.8Z"/>
    <path class="cls-5" d="M2317.25,496.72h39.29c1.2,0,1.79.6,1.79,1.79v93.34c0,14.76-5.09,26.99-15.26,36.7-10.17,9.7-23.07,14.56-38.69,14.56s-28.52-4.82-38.69-14.46c-10.17-9.64-15.26-21.77-15.26-36.4s4.49-25.73,13.46-35.3c8.98-9.57,19.98-14.36,33.01-14.36,6.91,0,13.1,1.53,18.55,4.59v-48.67c0-1.2.6-1.79,1.8-1.79ZM2294.32,602.63c2.66,2.66,5.95,3.99,9.87,3.99s7.21-1.33,9.87-3.99c2.66-2.66,3.99-6.01,3.99-10.07s-1.33-7.41-3.99-10.07c-2.66-2.66-5.95-3.99-9.87-3.99s-7.22,1.33-9.87,3.99c-2.66,2.66-3.99,6.02-3.99,10.07s1.33,7.41,3.99,10.07Z"/>
  </g>
</svg>