<!-- Created with Inkscape (http://www.inkscape.org/) -->
<svg width="451.4" height="200" version="1.1" viewBox="0 0 451.4 200" xmlns="http://www.w3.org/2000/svg">
 <g transform="matrix(1.3333 0 0 -1.3333 -846.24 299.19)">
  <g>
   <g fill="var(--devon-ab)">
    <path transform="matrix(6.2913 0 0 6.2913 682.18 208.09)" d="m0 0h-5.805s2.015-0.335 1.534-1.769c-0.321-0.856-3.28-9.017-3.28-9.017h5.566c3.452 0 6.3 1.725 7.033 4.099 0.23 0.743 0.636 1.715 0.82 2.372 0.992 3.538-2.848 4.315-5.868 4.315m1.683-3.581c-0.285-0.818-0.993-2.934-1.338-3.797s-1.079-1.208-1.618-1.208h-2.433c0.645 0.075 1.511 0.236 1.84 1.097l1.823 5.289h1.079c0.604 0 0.992-0.389 0.647-1.381"/>
    <path transform="matrix(6.2913 0 0 6.2913 755.32 189.36)" d="m0 0c-2.459-0.033-5.221-1.251-5.954-3.624-0.98-3.171 1.952-4.358 4.412-4.358 2.344 0 4.362 1.256 5.256 2.756h-3.285c-0.144-0.464-0.628-0.944-1.594-0.944-1.035 0-1.079 0.993-0.949 1.683h6.256c1.381 2.934-0.906 4.53-4.142 4.487m0.906-3.538h-2.804c0.345 1.467 1.294 1.855 1.855 1.823s1.337-0.269 0.949-1.823"/>
    <path transform="matrix(6.2913 0 0 6.2913 781.42 188.54)" d="m0 0s0.924-0.251 1.008-1.007c0.052-0.473 0.524-6.673 0.524-6.673h3.28l5.738 7.68h-3.71l-2.292-3.149-0.254 3.149z"/>
    <path transform="matrix(6.2913 0 0 6.2913 875.87 189.36)" d="m0 0c-1.51 0-5.221-0.776-6.127-3.797-0.86-2.867 1.845-4.228 4.66-4.228s5.221 2.341 5.695 4.228c0.848 3.37-2.416 3.797-4.228 3.797m0.69-3.063c-0.129-0.518-0.388-1.348-0.517-1.812-0.13-0.464-0.561-1.381-1.683-1.381s-1.122 1.122-0.949 1.769c0.172 0.647 0.259 0.949 0.388 1.381 0.129 0.431 0.733 1.294 1.726 1.294 0.992 0 1.165-0.733 1.035-1.251"/>
    <path transform="matrix(6.2913 0 0 6.2913 906.79 188.54)" d="m0 0s1.175-0.251 0.843-1.337c-0.239-0.783-2.114-6.343-2.114-6.343h3.84s1.024 3.118 1.251 3.711c0.561 1.467 1.51 1.769 1.985 1.769 0.647 0 0.709-0.553 0.518-1.165-0.216-0.691-1.424-4.315-1.424-4.315h4.012s1.343 4.496 1.511 5.135c0.474 1.812-0.302 2.545-1.812 2.545-1.554 0-2.676-0.518-3.797-1.251 0.129 0.475 0.301 1.251 0.301 1.251z"/>
   </g>
   <path transform="matrix(6.2913 0 0 6.2913 734.19 131.95)" d="m0 0h11.339s-3.368-4.509-3.954-5.275c-1.693 3.174-5.495 5.063-7.385 5.275" fill="#7ebb00"/>
   <path transform="matrix(6.2913 0 0 6.2913 763.03 74.389)" d="m0 0c-0.255 2.673-2.011 9.163-6.976 9.15-3.947-0.01-9.733 0-13.425 0 4.951-0.309 8.169-0.782 11.67-2.387 4.243-1.945 6.321-3.713 8.731-6.763" fill="#005cb9"/>
   <path transform="matrix(6.2913 0 0 6.2913 854.16 116.05)" d="m0 0h0.626l0.402 0.491 1.001-1e-3 0.036-0.491 0.642-1e-3 -0.243 2.321-0.47 1e-3zm2 0.923-0.63 1e-3 0.587 0.721zm1.078-0.925 1.621-1e-3 0.179 0.471-1.053 1e-3 0.701 1.849h-0.568zm2.026-1e-3 1.056-1e-3c0.459-1e-3 1.03 0.16 1.214 0.645 0.114 0.302-0.026 0.528-0.35 0.567l3e-3 7e-3c0.294 0.075 0.54 0.252 0.638 0.511 0.191 0.504-0.268 0.59-0.72 0.59l-0.962 1e-3zm1.283 1.887h0.387c0.178 0 0.363-0.049 0.29-0.243-0.071-0.187-0.278-0.252-0.452-0.252h-0.412zm-0.351-0.927 0.43-1e-3c0.185 0 0.445-0.036 0.362-0.256-0.078-0.203-0.304-0.272-0.482-0.272h-0.511zm1.541-0.962 1.818-2e-3 0.179 0.472-1.25 1e-3 0.18 0.476 1.119-1e-3 0.179 0.472h-1.119l0.163 0.43 1.184-1e-3 0.179 0.472-1.753 1e-3zm2.365-2e-3h0.567l0.352 0.927h0.281l0.187-0.928h0.681l-0.284 0.98c0.387 0.059 0.675 0.311 0.798 0.635 0.206 0.542-0.177 0.705-0.705 0.706h-0.998zm1.283 1.888h0.372c0.207-1e-3 0.427-0.037 0.339-0.27-0.096-0.252-0.368-0.258-0.576-0.258h-0.335zm1.602-1.89h0.568l0.708 1.868h0.736l0.172 0.452-2.04 1e-3 -0.172-0.452h0.736zm1.082-1e-3h0.627l0.402 0.491h1.001l0.036-0.492h0.641l-0.242 2.32-0.47 1e-3zm2.001 0.923-0.63 1e-3 0.587 0.721z" fill="var(--devon-ab)"/>
   <path transform="matrix(6.2913 0 0 6.2913 740.05 202.73)" d="m0 0h0.904l0.965 2.703h1.171l0.234 0.655h-3.246l-0.234-0.655h1.171zm2.854 1.679c-0.384-1.077 0.303-1.764 1.584-1.764 1.282 0 2.461 0.687 2.845 1.764s-0.303 1.764-1.585 1.764c-1.281 0-2.459-0.687-2.844-1.764m0.939 0c0.224 0.626 0.891 1.081 1.662 1.081s1.112-0.455 0.889-1.081c-0.224-0.626-0.891-1.081-1.662-1.081s-1.112 0.455-0.889 1.081m4.235-1.679h0.777l1.734 2.324h0.012l0.074-2.324h0.806l2.399 3.358h-0.916l-1.479-2.21h-0.012l-0.063 2.21h-0.84l-1.627-2.153h-0.012l0.114 2.153h-0.985zm4.95 0h0.905l0.853 2.39h0.012l0.938-2.39h1.182l1.199 3.358h-0.904l-0.834-2.334h-0.011l-0.911 2.334h-1.229zm6.704 1.679c-0.385-1.077 0.303-1.764 1.584-1.764s2.46 0.687 2.844 1.764c0.385 1.077-0.303 1.764-1.584 1.764s-2.46-0.687-2.844-1.764m0.938 0c0.224 0.626 0.891 1.081 1.662 1.081s1.113-0.455 0.889-1.081c-0.223-0.626-0.89-1.081-1.661-1.081s-1.113 0.455-0.89 1.081m3.482-1.679h0.904l0.467 1.309h1.711l0.243 0.683h-1.71l0.244 0.683h1.85l0.243 0.683h-2.753z" fill="var(--town-of)"/>
  </g>
 </g>
</svg>
